<?xml version="1.0" standalone="no"?>
<!DOCTYPE svg PUBLIC "-//W3C//DTD SVG 20010904//EN"
 "http://www.w3.org/TR/2001/REC-SVG-20010904/DTD/svg10.dtd">
<svg version="1.0" xmlns="http://www.w3.org/2000/svg"
 width="700.000000pt" height="700.000000pt" viewBox="0 0 700.000000 700.000000"
 preserveAspectRatio="xMidYMid meet">
<metadata>
Created by potrace 1.11, written by Peter Selinger 2001-2013
</metadata>
<g transform="translate(0.000000,700.000000) scale(0.100000,-0.100000)"
fill="#000000" stroke="none">
<path d="M5282 6948 c-167 -19 -303 -101 -384 -233 -57 -93 -72 -151 -72 -285
0 -106 4 -135 24 -190 73 -205 239 -326 460 -337 169 -9 300 37 406 143 104
104 155 244 148 412 -12 313 -265 526 -582 490z"/>
<path d="M5193 5529 c-265 -24 -478 -159 -602 -380 -31 -55 -68 -151 -76 -199
-2 -14 -9 -49 -15 -79 -23 -121 2 -318 57 -454 90 -220 296 -390 538 -440 90
-19 270 -19 360 0 198 41 367 154 470 313 60 93 98 184 111 268 3 21 9 56 14
79 4 23 6 89 4 145 -13 473 -380 791 -861 747z"/>
<path d="M2857 5074 c-2 -2 -21 -6 -43 -8 -133 -14 -324 -88 -423 -163 -73
-56 -169 -157 -215 -228 -95 -145 -143 -296 -153 -485 -15 -300 73 -546 267
-740 146 -146 309 -229 510 -258 75 -11 311 -7 372 7 32 7 59 12 60 12 2 -1
38 12 81 28 224 84 399 243 495 451 98 212 121 450 67 694 -16 70 -69 209 -90
236 -7 8 -14 22 -17 31 -8 22 -120 159 -158 193 -74 65 -228 157 -285 171 -5
1 -22 7 -37 13 -59 24 -190 44 -305 46 -68 2 -124 1 -126 0z"/>
<path d="M4347 3354 c-1 -1 -36 -4 -77 -7 -155 -11 -329 -88 -438 -195 -51
-49 -112 -126 -112 -141 0 -6 -4 -11 -10 -11 -5 0 -10 -4 -10 -9 0 -5 -12 -35
-27 -67 -15 -33 -28 -63 -30 -69 -1 -5 -9 -39 -18 -75 -34 -136 -22 -337 30
-480 74 -207 255 -375 470 -438 129 -38 289 -45 412 -18 15 4 37 8 48 10 11 2
45 14 75 26 217 86 372 262 436 497 19 71 27 297 13 373 -57 296 -255 508
-544 580 -66 16 -209 32 -218 24z"/>
<path d="M1945 2544 c-446 -66 -796 -343 -950 -751 -28 -72 -53 -164 -61 -223
-3 -19 -9 -57 -14 -85 -8 -50 -6 -311 3 -351 3 -12 8 -39 11 -60 28 -175 119
-389 223 -526 202 -265 488 -421 848 -463 59 -7 256 -7 288 0 12 2 41 6 64 9
247 30 510 161 681 341 252 262 366 622 329 1036 -35 398 -261 756 -592 934
-77 41 -226 101 -271 108 -16 3 -47 9 -69 15 -106 28 -350 36 -490 16z"/>
</g>
</svg>
