<?xml version="1.0" encoding="utf-8"?>
<!-- Generator: Adobe Illustrator 24.1.0, SVG Export Plug-In . SVG Version: 6.00 Build 0)  -->
<svg version="1.1" id="Calque_1" xmlns="http://www.w3.org/2000/svg" xmlns:xlink="http://www.w3.org/1999/xlink" x="0px" y="0px"
	 viewBox="0 0 15.6 13.8" style="enable-background:new 0 0 15.6 13.8;" xml:space="preserve">
<path d="M9.8,2.2C9.8,1,10.8,0,12,0s2.3,1,2.3,2.2s-1,2.2-2.3,2.2S9.8,3.4,9.8,2.2z M15.6,8.1v5.6H8.5V8.1c0-1.4,1.2-2.5,2.6-2.5h2
	C14.4,5.6,15.6,6.8,15.6,8.1z M14.3,8.1c0-0.7-0.6-1.2-1.3-1.2h-2c-0.7,0-1.3,0.6-1.3,1.2v4.4h4.6V8.1z M7.2,10v3.7H0V10
	c0-1.4,1.2-2.5,2.6-2.5h2C6,7.5,7.2,8.6,7.2,10z M5.9,10c0-0.7-0.6-1.2-1.3-1.2h-2c-0.7,0-1.3,0.6-1.3,1.2v2.5h4.6V10z M3.6,6.3
	c1.2,0,2.3-1,2.3-2.2s-1-2.2-2.3-2.2s-2.3,1-2.3,2.2S2.3,6.3,3.6,6.3z"/>
</svg>
