<?xml version="1.0" encoding="utf-8"?>
<!-- Generator: Adobe Illustrator 24.1.0, SVG Export Plug-In . SVG Version: 6.00 Build 0)  -->
<svg version="1.1" id="Calque_1" xmlns="http://www.w3.org/2000/svg" xmlns:xlink="http://www.w3.org/1999/xlink" x="0px" y="0px"
	 viewBox="0 0 14.3 13.6" style="enable-background:new 0 0 14.3 13.6;" xml:space="preserve">
<path d="M6.6,0.6C3,0.6,0.1,3.5,0.1,7.1s2.9,6.5,6.5,6.5c1.8,0,3.4-0.7,4.5-1.8L6.6,7.1L6.6,0.6z M6.6,12.6c-3,0-5.5-2.5-5.5-5.5
	c0-2.7,1.9-5,4.5-5.4l0,5.4l0,0.4l0.3,0.3l3.8,3.9C8.7,12.3,7.7,12.6,6.6,12.6z M12.4,5.9c0.9,0,1.6,0,1.6,0c-0.3-3.1-2.9-5.7-6-5.9
	c0,0,0,5.9,0,5.9S10.6,5.9,12.4,5.9z M8.9,1.2c1.8,0.5,3.2,1.9,3.8,3.7c-0.1,0-0.2,0-0.3,0l-3.4,0C8.9,3.1,8.9,1.9,8.9,1.2z M14.3,7
	c-0.1,1.6-0.8,3-1.9,4.1L8.2,7H14.3z"/>
</svg>
