<?xml version="1.0" encoding="utf-8"?>
<!-- Generator: Adobe Illustrator 24.1.0, SVG Export Plug-In . SVG Version: 6.00 Build 0)  -->
<svg version="1.1" id="Calque_1" xmlns="http://www.w3.org/2000/svg" xmlns:xlink="http://www.w3.org/1999/xlink" x="0px" y="0px"
	 viewBox="0 0 11.3 12.8" style="enable-background:new 0 0 11.3 12.8;" xml:space="preserve">
<g>
	<path d="M0,0v12.8h11.3V0H0z M10,11.6H1.2V1.2H10V11.6z"/>
	<path d="M7.9,8.1V5.9c0-1.2-0.4-2.4-2.3-2.4C4.9,3.5,4,3.7,3.7,4L4,4.8c0.4-0.3,1-0.4,1.5-0.4c1.2,0,1.3,0.9,1.3,1.3v0.1
		c-2.2,0-3.5,0.7-3.5,2.1c0,0.8,0.6,1.7,1.8,1.7c0.8,0,1.5-0.4,1.8-0.9L7,9.5h1C7.9,9.1,7.9,8.6,7.9,8.1z M6.9,7.5
		c0,0.6-0.8,1.3-1.5,1.3c-0.6,0-1-0.3-1-1c0-1.1,1.3-1.3,2.5-1.3V7.5z"/>
</g>
</svg>
