<?xml version="1.0" encoding="utf-8"?>
<!-- Generator: Adobe Illustrator 24.1.0, SVG Export Plug-In . SVG Version: 6.00 Build 0)  -->
<svg version="1.1" id="Calque_1" xmlns="http://www.w3.org/2000/svg" xmlns:xlink="http://www.w3.org/1999/xlink" x="0px" y="0px"
	 viewBox="0 0 21.3 18.4" style="enable-background:new 0 0 21.3 18.4;" xml:space="preserve">
<path d="M19.5,1.5c-1-1-2.4-1.5-3.9-1.5c-1.9,0-3.7,0.8-4.8,2.1c-0.1,0.1-0.2,0.1-0.3,0C9.4,0.8,7.6,0,5.7,0C4.2,0,2.8,0.5,1.8,1.5
	C0.6,2.6,0,4.2,0,6.1c0,5,6.5,9.7,9.1,11.3c0.3,0.2,0.9,0.6,1.2,0.8c0.2,0.1,0.5,0.1,0.7,0c0.4-0.3,1-0.7,1.2-0.8
	c2.6-1.7,9.1-6.3,9.1-11.3C21.3,4.2,20.7,2.6,19.5,1.5z M15.1,11.7c-0.2,0.1-0.4,0.2-0.6,0.2c-0.3,0-0.6-0.1-0.8-0.4
	c-0.3-0.4-0.2-1.1,0.2-1.4c2.6-1.9,3.5-4.2,2.5-5.7C16,4,16.1,3.4,16.5,3.1c0.4-0.3,1.1-0.2,1.4,0.2C19.7,5.7,18.6,9.1,15.1,11.7z"
	/>
</svg>
