<svg width="123" height="120" viewBox="0 0 123 120" fill="none" xmlns="http://www.w3.org/2000/svg">
<path d="M104.273 76.3807V18.1513H116.883C117.656 18.1513 118.289 17.5181 118.289 16.7442V8.4659C118.289 3.7991 114.492 0.0234512 109.828 0C109.688 0 109.57 0 109.43 0H43.7344C38.5547 0.0234512 34.0547 4.19777 33.9844 9.3805V27.7897L22.7344 46.9963L16.1016 35.6693C15.9844 35.4583 15.7969 35.2941 15.6094 35.1769C14.9297 34.7782 14.0859 35.0127 13.6875 35.6693L1.5 56.4706C1.38281 56.6816 1.3125 56.9396 1.3125 57.1741C1.3125 57.948 1.94531 58.5812 2.71875 58.5812H33.9844V103.584C33.9844 104.17 34.4531 104.639 35.0391 104.639H80.1797C82.9688 113.527 91.2891 120 101.086 120C113.18 120 123 110.174 123 98.0731C122.977 87.051 114.867 77.9285 104.273 76.3807ZM109.828 2.81415C112.945 2.81415 115.477 5.34688 115.477 8.4659V14.5632C115.477 15.0088 115.125 15.3606 114.68 15.3606H104.203V8.4659H104.18C104.18 5.34688 106.711 2.81415 109.828 2.81415ZM5.17969 55.7671L14.8828 39.1636L21.0938 49.787L17.5781 55.7905H5.17969V55.7671ZM23.9297 50.514L35.4375 30.8618L50.0391 55.7905H20.8359L23.9297 50.514ZM37.7578 101.731C37.1719 101.731 36.7031 101.262 36.7031 100.676L36.8906 58.6046H52.5C52.7578 58.6046 52.9922 58.5343 53.2031 58.417C53.8828 58.0184 54.0938 57.1507 53.6953 56.494L37.0078 28.0008L37.0781 9.4274C37.125 5.79246 40.0781 2.86105 43.7344 2.8376H103.57C102.188 4.38538 101.414 6.40219 101.414 8.48935V76.1696C101.297 76.1696 101.203 76.1696 101.086 76.1696C97.2422 76.1696 93.6562 77.1546 90.5156 78.89V67.3051C90.5156 66.6015 89.9531 66.0387 89.25 66.0387H83.4609C82.7578 66.0387 82.1953 66.6015 82.1953 67.3051V86.9807C80.2734 90.2404 79.1719 94.0395 79.1719 98.12C79.1719 99.3629 79.2656 100.582 79.4766 101.778H37.7578V101.731ZM87.9844 80.4847C86.7891 81.3758 85.7109 82.3842 84.7266 83.4864V68.9466C84.7266 68.7121 84.9141 68.5245 85.1484 68.5245H87.5625C87.7969 68.5245 87.9844 68.7121 87.9844 68.9466V80.4847ZM101.086 117.256C92.7891 117.256 85.7344 112.003 83.0625 104.639C82.9688 104.381 82.8984 104.147 82.8047 103.889C82.7578 103.748 82.7109 103.608 82.6875 103.467C82.6641 103.35 82.6172 103.232 82.5938 103.115C82.5469 102.927 82.5 102.763 82.4531 102.576C82.4297 102.505 82.4297 102.435 82.4062 102.365C82.3594 102.154 82.3125 101.943 82.2656 101.731C82.0312 100.559 81.9141 99.316 81.9141 98.0731C81.9141 96.2204 82.1719 94.4381 82.6641 92.7497C82.8281 92.1399 83.0391 91.5536 83.2734 90.9674C83.2969 90.9439 83.2969 90.897 83.3203 90.8736C83.3906 90.7094 83.4609 90.5218 83.5312 90.3576C83.5547 90.2873 83.6016 90.2169 83.625 90.1466C83.7422 89.9121 83.8594 89.6541 83.9766 89.4196C84.0469 89.3023 84.0938 89.1851 84.1641 89.0678C84.2344 88.9506 84.2812 88.8333 84.3516 88.716C84.4219 88.5753 84.4922 88.4581 84.5859 88.3174C84.6328 88.2236 84.7031 88.1298 84.75 88.036C85.6641 86.5585 86.7656 85.2218 88.0078 84.0492C88.1953 83.8851 88.3828 83.7209 88.5703 83.5568C88.5938 83.5333 88.6172 83.5099 88.6406 83.4864C88.8281 83.3223 88.9922 83.1815 89.1797 83.0408C89.2266 83.0174 89.25 82.9939 89.2969 82.947C89.4844 82.8063 89.6719 82.6656 89.8359 82.5249C89.8828 82.5015 89.9062 82.478 89.9531 82.4546C90.1406 82.3139 90.3516 82.1731 90.5391 82.0559C93.5625 80.0391 97.1953 78.8665 101.109 78.8665C101.227 78.8665 101.32 78.8665 101.438 78.8665C102.141 78.89 102.844 78.9369 103.523 79.0072C103.57 79.0072 103.594 79.0072 103.641 79.0307C103.852 79.0541 104.086 79.101 104.297 79.1245C113.367 80.6488 120.281 88.5284 120.281 98.0496C120.234 108.673 111.68 117.233 101.086 117.256ZM113.016 91.2019C113.531 91.7412 113.508 92.609 112.969 93.1483L99.3047 106.187C98.7656 106.703 97.9219 106.68 97.3828 106.164L89.6484 98.4249C89.625 98.4014 89.625 98.4014 89.625 98.4014C89.1094 97.862 89.1094 96.9943 89.6484 96.4549C90.1875 95.9156 91.0547 95.939 91.5938 96.4784L98.3906 103.279L111.094 91.155C111.633 90.6625 112.5 90.6625 113.016 91.2019ZM8.71875 31.5419C13.5234 31.5419 17.4141 27.649 17.4375 22.8181C17.4375 18.0106 13.5469 14.0942 8.71875 14.0942C3.89062 14.0942 0 18.0106 0 22.8181C0 27.6256 3.89062 31.5419 8.71875 31.5419ZM8.71875 16.9083C11.9766 16.9083 14.625 19.5583 14.625 22.8181C14.625 26.0778 11.9766 28.7278 8.71875 28.7278C5.46094 28.7278 2.8125 26.0778 2.8125 22.8181C2.8125 19.5583 5.46094 16.9083 8.71875 16.9083ZM50.8828 35.2472C50.8828 36.0211 50.25 36.6543 49.4766 36.6543H47.0625C46.2891 36.6543 45.6562 36.0211 45.6562 35.2472C45.6562 34.4733 46.2891 33.8401 47.0625 33.8401H49.4766C50.25 33.8401 50.8828 34.4733 50.8828 35.2472ZM46.9453 28.4698H67.5938C68.2969 28.4698 68.8594 27.907 68.8594 27.2034V15.8765C68.8594 15.173 68.2969 14.6101 67.5938 14.6101H46.9453C46.2422 14.6101 45.6797 15.173 45.6797 15.8765V27.2034C45.6797 27.907 46.2422 28.4698 46.9453 28.4698ZM48.2109 17.7057C48.2109 17.4008 48.4688 17.1429 48.7734 17.1429H65.7891C66.0938 17.1429 66.3516 17.4008 66.3516 17.7057V25.3977C66.3516 25.7026 66.0938 25.9605 65.7891 25.9605H48.7734C48.4688 25.9605 48.2109 25.7026 48.2109 25.3977V17.7057ZM82.6641 61.1843C84.1406 63.2011 86.9766 63.6467 88.9922 62.1692C91.0078 60.6918 91.4531 57.8542 89.9766 55.8374C89.1562 54.6648 87.8203 53.9613 86.3672 53.9613C83.8594 53.9613 81.8438 55.9781 81.8438 58.4874C81.8438 58.5108 81.8438 58.5108 81.8438 58.5343L77.4844 62.5445C75.6094 60.9029 72.75 61.0905 71.1094 62.99C70.0547 64.186 69.7266 65.8511 70.1953 67.352L66.2109 70.7289C64.6641 68.759 61.8281 68.4073 59.8828 69.955C59.6953 70.0958 59.5078 70.2599 59.3438 70.471L55.2656 67.6334C55.7344 65.171 54.1172 62.779 51.6328 62.3334C49.1719 61.8644 46.7812 63.4825 46.3359 65.9683C45.8672 68.4307 47.4844 70.8227 49.9688 71.2683C51.4922 71.5732 53.0625 71.0338 54.1172 69.9081L58.1953 72.7458C57.75 75.2081 59.3906 77.5767 61.8516 77.9988C64.3125 78.4444 66.6797 76.8028 67.1016 74.3404C67.1484 74.0825 67.1719 73.8245 67.1719 73.5665C67.1719 73.4727 67.1719 73.3555 67.1484 73.2617L71.5781 69.5095C73.5 71.1042 76.3594 70.8462 77.9531 68.9232C78.9141 67.7741 79.2422 66.2029 78.8203 64.7489L82.6641 61.1843ZM86.3672 56.494C87.4688 56.494 88.3594 57.4086 88.3594 58.4874C88.3594 59.5896 87.4453 60.4807 86.3672 60.4807C85.2422 60.4807 84.375 59.5662 84.375 58.4874C84.375 57.3852 85.2656 56.494 86.3672 56.494ZM50.7891 68.759C49.6641 68.759 48.7969 67.8444 48.7969 66.7657C48.7969 65.64 49.7109 64.7723 50.7891 64.7723C51.9141 64.7723 52.7812 65.6869 52.7812 66.7657C52.8281 67.8679 51.9141 68.759 50.7891 68.759ZM62.6484 75.513C61.5234 75.513 60.6562 74.5984 60.6562 73.5196C60.6562 72.4174 61.5703 71.5263 62.6484 71.5263C63.7734 71.5263 64.6406 72.4409 64.6406 73.5196C64.6641 74.5984 63.7734 75.513 62.6484 75.513ZM74.5312 67.9382C73.4062 67.9382 72.5391 67.0237 72.5391 65.9449C72.5391 64.8192 73.4531 63.9515 74.5312 63.9515C75.6328 63.9515 76.5234 64.8427 76.5234 65.9449C76.5234 67.0471 75.6094 67.9382 74.5312 67.9382ZM92.8359 47.4419C92.8359 48.2158 92.2031 48.8489 91.4297 48.8489H77.2734C76.5 48.8489 75.8672 48.2158 75.8672 47.4419C75.8672 46.668 76.5 46.0348 77.2734 46.0348H91.4297C92.2031 46.0348 92.8359 46.668 92.8359 47.4419ZM68.0391 33.8401C68.8125 33.8401 69.4453 34.4733 69.4453 35.2472C69.4453 36.0211 68.8125 36.6543 68.0391 36.6543H55.5234C54.75 36.6543 54.1172 36.0211 54.1172 35.2472C54.1172 34.4733 54.75 33.8401 55.5234 33.8401H68.0391ZM53.6953 74.317H47.9062C47.2031 74.317 46.6406 74.8798 46.6406 75.5833V91.7882C46.6406 92.4917 47.2031 93.0545 47.9062 93.0545H53.6953C54.3984 93.0545 54.9609 92.4917 54.9609 91.7882V75.5833C54.9609 74.8798 54.3984 74.317 53.6953 74.317ZM52.4531 90.0997C52.4531 90.3342 52.2656 90.5218 52.0312 90.5218H49.6172C49.3828 90.5218 49.1953 90.3342 49.1953 90.0997V77.2718C49.1953 77.0373 49.3828 76.8497 49.6172 76.8497H52.0312C52.2656 76.8497 52.4531 77.0373 52.4531 77.2718V90.0997ZM71.8828 35.2472C71.8828 34.4733 72.5156 33.8401 73.2891 33.8401H91.4766C92.25 33.8401 92.8828 34.4733 92.8828 35.2472C92.8828 36.0211 92.25 36.6543 91.4766 36.6543H73.2891C72.5156 36.6543 71.8828 36.0211 71.8828 35.2472ZM73.1719 22.4897C73.1719 21.7158 73.8047 21.0827 74.5781 21.0827H77.6484C78.4219 21.0827 79.0547 21.7158 79.0547 22.4897C79.0547 23.2636 78.4219 23.8968 77.6484 23.8968H74.5781C73.8047 23.8968 73.1719 23.2636 73.1719 22.4897ZM71.7422 48.8489H53.4609C52.6875 48.8489 52.0547 48.2158 52.0547 47.4419C52.0547 46.668 52.6875 46.0348 53.4609 46.0348H71.7422C72.5156 46.0348 73.1484 46.668 73.1484 47.4419C73.1484 48.2158 72.5156 48.8489 71.7422 48.8489ZM77.4141 73.4258H71.625C70.9219 73.4258 70.3594 73.9887 70.3594 74.6922V91.7882C70.3594 92.4917 70.9219 93.0545 71.625 93.0545H77.4141C78.1172 93.0545 78.6797 92.4917 78.6797 91.7882V74.6922C78.6562 73.9887 78.0938 73.4258 77.4141 73.4258ZM76.1484 90.0997C76.1484 90.3342 75.9609 90.5218 75.7266 90.5218H73.3125C73.0781 90.5218 72.8906 90.3342 72.8906 90.0997V76.3807C72.8906 76.1462 73.0781 75.9586 73.3125 75.9586H75.7266C75.9609 75.9586 76.1484 76.1462 76.1484 76.3807V90.0997ZM65.5547 81.0475H59.7656C59.0625 81.0475 58.5 81.6103 58.5 82.3139V91.7882C58.5 92.4917 59.0625 93.0545 59.7656 93.0545H65.5547C66.2578 93.0545 66.8203 92.4917 66.8203 91.7882V82.3139C66.8203 81.6103 66.2578 81.0475 65.5547 81.0475ZM64.2891 90.0997C64.2891 90.3342 64.1016 90.5218 63.8672 90.5218H61.4531C61.2188 90.5218 61.0312 90.3342 61.0312 90.0997V84.0023C61.0312 83.7678 61.2188 83.5802 61.4531 83.5802H63.8672C64.1016 83.5802 64.2891 83.7678 64.2891 84.0023V90.0997ZM81.3047 22.4897C81.3047 21.7158 81.9375 21.0827 82.7109 21.0827H91.4766C92.25 21.0827 92.8828 21.7158 92.8828 22.4897C92.8828 23.2636 92.25 23.8968 91.4766 23.8968H82.7109C81.9141 23.8968 81.3047 23.2636 81.3047 22.4897Z" fill="#1680A5"/>
</svg>
