<svg width="113" height="117" viewBox="0 0 113 117" fill="none" xmlns="http://www.w3.org/2000/svg">
<path d="M57.1094 43.6813H40.7266C39.9531 43.6813 39.3203 43.0481 39.3203 42.2742C39.3203 41.5003 39.9531 40.8671 40.7266 40.8671H57.1094C57.8828 40.8671 58.5156 41.5003 58.5156 42.2742C58.5156 43.0481 57.8828 43.6813 57.1094 43.6813ZM28.8437 43.6813H34.9141C35.6875 43.6813 36.3203 43.0481 36.3203 42.2742C36.3203 41.5003 35.6875 40.8671 34.9141 40.8671H28.8437C28.0703 40.8671 27.4375 41.5003 27.4375 42.2742C27.4375 43.0481 28.0703 43.6813 28.8437 43.6813ZM43.7734 56.298H58.9141C59.6875 56.298 60.3203 55.6648 60.3203 54.8909C60.3203 54.1171 59.6875 53.4839 58.9141 53.4839H43.7734C43 53.4839 42.3672 54.1171 42.3672 54.8909C42.3672 55.6648 43 56.298 43.7734 56.298ZM28.8437 56.298H39.0156C39.7891 56.298 40.4219 55.6648 40.4219 54.8909C40.4219 54.1171 39.7891 53.4839 39.0156 53.4839H28.8437C28.0703 53.4839 27.4375 54.1171 27.4375 54.8909C27.4375 55.6648 28.0703 56.298 28.8437 56.298ZM28.8437 31.041H52.3984C53.1719 31.041 53.8047 30.4079 53.8047 29.634C53.8047 28.8601 53.1719 28.2269 52.3984 28.2269H28.8437C28.0703 28.2269 27.4375 28.8601 27.4375 29.634C27.4375 30.4079 28.0703 31.041 28.8437 31.041ZM66.2969 28.2269H64.5625C63.7891 28.2269 63.1562 28.8601 63.1562 29.634C63.1562 30.4079 63.7891 31.041 64.5625 31.041H66.2969C67.0703 31.041 67.7031 30.4079 67.7031 29.634C67.7031 28.8601 67.0703 28.2269 66.2969 28.2269ZM59.8047 28.2269H58.3047C57.5312 28.2269 56.8984 28.8601 56.8984 29.634C56.8984 30.4079 57.5312 31.041 58.3047 31.041H59.8047C60.5781 31.041 61.2109 30.4079 61.2109 29.634C61.2109 28.8601 60.5781 28.2269 59.8047 28.2269ZM64.1172 66.1241H59.0547C58.2812 66.1241 57.6484 66.7573 57.6484 67.5312C57.6484 68.3051 58.2812 68.9382 59.0547 68.9382H64.1172C64.8906 68.9382 65.5234 68.3051 65.5234 67.5312C65.5234 66.7573 64.9141 66.1241 64.1172 66.1241ZM54.1094 66.1241H34.1641C33.3906 66.1241 32.7578 66.7573 32.7578 67.5312C32.7578 68.3051 33.3906 68.9382 34.1641 68.9382H54.1094C54.8828 68.9382 55.5156 68.3051 55.5156 67.5312C55.5156 66.7573 54.9062 66.1241 54.1094 66.1241ZM29.4062 66.1241H28.8437C28.0703 66.1241 27.4375 66.7573 27.4375 67.5312C27.4375 68.3051 28.0703 68.9382 28.8437 68.9382H29.4062C30.1797 68.9382 30.8125 68.3051 30.8125 67.5312C30.8125 66.7573 30.1797 66.1241 29.4062 66.1241ZM28.8437 18.4008H30.8125C31.5859 18.4008 32.2187 17.7676 32.2187 16.9937C32.2187 16.2199 31.5859 15.5867 30.8125 15.5867H28.8437C28.0703 15.5867 27.4375 16.2199 27.4375 16.9937C27.4375 17.7676 28.0703 18.4008 28.8437 18.4008ZM45.3437 18.4008H66.2734C67.0469 18.4008 67.6797 17.7676 67.6797 16.9937C67.6797 16.2199 67.0469 15.5867 66.2734 15.5867H45.3437C44.5703 15.5867 43.9375 16.2199 43.9375 16.9937C43.9375 17.7676 44.5703 18.4008 45.3437 18.4008ZM36.6953 18.4008H40.6094C41.3828 18.4008 42.0156 17.7676 42.0156 16.9937C42.0156 16.2199 41.3828 15.5867 40.6094 15.5867H36.6953C35.9219 15.5867 35.2891 16.2199 35.2891 16.9937C35.2891 17.7676 35.9219 18.4008 36.6953 18.4008ZM111.672 80.828C111.109 81.3674 110.219 81.3674 109.68 80.828L98.2422 69.3838C98.1719 69.4542 98.1016 69.5011 98.0312 69.5714V86.3156C98.0078 92.1315 93.3203 96.8452 87.5078 96.8452H50.9219V113.566H69.4141C70.1875 113.566 70.8203 114.199 70.8203 114.973C70.8203 115.747 70.1875 116.38 69.4141 116.38H30.6953C29.9219 116.38 29.2891 115.747 29.2891 114.973C29.2891 114.199 29.9219 113.566 30.6953 113.566H48.1094V96.8452H11.5234C5.71094 96.8218 1 92.1315 1 86.3156V35.4733C1.02344 29.6574 5.71094 24.9437 11.5234 24.9437H19L19.0937 10.3805C19.1641 5.19777 23.3828 1.02345 28.5625 1H82.8438C82.9844 1 83.1016 1 83.2422 1C87.9062 1.02345 91.7031 4.7991 91.7031 9.4659V17.7442C91.7031 18.5181 91.0703 19.1513 90.2969 19.1513H77.6172V24.9437H87.5078C93.3203 24.9672 98.0312 29.6574 98.0312 35.4733V36.3176C98.4531 36.6693 98.875 37.068 99.2734 37.4667C107.43 45.6512 107.852 58.737 100.234 67.4139L111.672 78.8581C112.234 79.3975 112.234 80.2886 111.672 80.828ZM77.5937 9.4659H77.6172V16.3606H88C88.4922 16.3606 88.8906 15.9619 88.8906 15.4694V9.4659C88.8906 6.34688 86.3594 3.81415 83.2422 3.81415C80.125 3.81415 77.5937 6.34688 77.5937 9.4659ZM77.5703 31.9087C83.4766 30.1733 89.8281 30.9941 95.0781 34.1835C94.4453 30.4782 91.2344 27.7579 87.4844 27.7579H77.5937H77.5703V31.9087ZM21.5312 76.8882H74.8281V72.9249C74.7109 72.8781 74.5937 72.8077 74.4766 72.7608C63.5547 67.625 58.8672 54.6095 64 43.6813C63.9766 43.6813 63.9531 43.6813 63.9297 43.6813H61.9141C61.1406 43.6813 60.5078 43.0481 60.5078 42.2742C60.5078 41.5003 61.1406 40.8671 61.9141 40.8671H63.9297C64.4453 40.8671 64.8906 41.1485 65.1484 41.5706C67.4219 37.795 70.7969 34.8167 74.8281 32.9875V9.4659C74.8281 7.37874 75.6016 5.36193 76.9844 3.81415H28.5859C24.9297 3.8376 21.9766 6.769 21.9297 10.4039L21.5312 76.8882ZM3.8125 76.0909C3.8125 76.513 4.16406 76.8648 4.58594 76.8648H18.7187L19 27.7579H11.5234C7.25781 27.7813 3.8125 31.2286 3.8125 35.4733V76.0909ZM95.2187 80.4528C95.2187 80.0307 94.8672 79.6789 94.4453 79.6789H4.58594C4.16406 79.6789 3.8125 80.0307 3.8125 80.4528V86.3156C3.83594 90.5837 7.28125 94.0311 11.5234 94.0311H87.5078C91.7734 94.0076 95.2187 90.5603 95.2187 86.3156V80.4528ZM95.2187 71.6351C89.9453 74.848 83.5469 75.7156 77.6172 73.9568V76.8648H94.4453C94.8672 76.8648 95.2187 76.513 95.2187 76.0909V71.6351ZM97.2812 39.4366C96.7891 38.9441 96.2734 38.4985 95.7344 38.053C88.1406 31.9322 77.1484 32.5185 70.2578 39.4366C62.8047 46.8941 62.8281 58.9949 70.2812 66.4524C77.7344 73.9099 89.8281 73.8865 97.2812 66.429C104.711 58.9715 104.711 46.8941 97.2812 39.4366Z" fill="#1680A5" stroke="#1680A5" stroke-width="0.1"/>
</svg>
