<svg width="580" height="510" viewBox="0 0 580 510" fill="none" xmlns="http://www.w3.org/2000/svg">
<path opacity="0.7" d="M76.4756 3L74.2139 444.331L221.511 507.621L223.773 66.2895L76.4756 3Z" stroke="#E4E9EF" stroke-width="3" stroke-miterlimit="10"/>
<path d="M234.234 337.672H196.632V393.05H234.234V337.672Z" fill="white"/>
<path d="M413.761 374.402L360.892 351.939C361.458 352.222 362.164 352.363 362.871 352.646L415.74 375.108C415.033 374.825 414.326 374.543 413.761 374.402Z" fill="#1D7691"/>
<path d="M415.698 375.672L362.871 352.504C364.002 352.786 365.274 353.069 366.688 353.21L419.556 375.672C419.5 376.499 416.828 376.096 415.698 375.672Z" fill="#1E7994"/>
<path d="M419.415 375.846L366.546 353.384C368.667 353.525 370.929 353.384 373.332 352.96C377.997 352.112 382.107 349.325 385.5 346.5L439 370C435.607 372.684 430.665 374.825 426 375.673C423.597 376.097 421.535 375.987 419.415 375.846Z" fill="#1E7B98"/>
<path d="M438.357 370.022L385.489 347.56C386.478 346.712 387.468 345.865 388.457 344.876L441.326 367.338C440.336 368.327 440 369.5 438.357 370.022Z" fill="#1E7994"/>
<path d="M441.5 367.5L388.316 344.876C389.022 344.028 390.293 342.848 391 342L443.446 364.795C442.739 365.643 442.348 366.652 441.5 367.5Z" fill="#1D7691"/>
<path d="M443.5 364.999L390.578 342.191C391.284 341.344 391.85 340.355 392.557 339.225L445.5 361.999C444.793 363.129 444.207 364.151 443.5 364.999Z" fill="#1C748E"/>
<path d="M445.5 361.999L392.557 339.366C393.263 338.236 393.829 337.105 394.394 335.834L447.5 358.499C446.935 359.77 446.207 360.869 445.5 361.999Z" fill="#1B718B"/>
<path d="M447.5 358.5L394.394 335.835C394.677 335.411 394.859 334.424 395 334L448 357C447.859 357.424 447.783 358.076 447.5 358.5Z" fill="#1A6E87"/>
<path d="M448 357L395.101 334.421C395.808 333.009 396.373 331.596 396.797 330.042L450 352.5C449.435 354.054 448.565 355.587 448 357Z" fill="#1A6E87"/>
<path d="M450 352.5L396.797 330.042C397.504 328.065 398.07 326.087 398.352 323.968L451.5 346.5C451.076 348.619 450.707 350.522 450 352.5Z" fill="#196B84"/>
<path d="M451.5 346.5L398.352 323.968C399.059 320.436 399.342 316.763 399.483 312.666C399.483 303.766 398.07 296.844 394.96 291.617C392.557 287.52 389.447 284.553 385.771 282.999L438.64 305.461C442.315 307.015 445.425 309.841 447.828 314.079C450.797 319.306 452.5 325.241 452.5 334C452.5 338.097 452.207 342.968 451.5 346.5Z" fill="#186981"/>
<path d="M449.807 246.693L396.939 224.231C396.656 224.089 396.373 223.948 396.091 223.666C395.384 222.959 395.101 222.112 395.101 220.981L447.97 243.444C447.97 244.574 448.252 245.421 448.959 246.128C449.242 246.41 449.525 246.693 449.807 246.693Z" fill="#186981"/>
<path d="M447.97 243.584L395.101 221.122V218.155L447.97 240.617V243.584Z" fill="#196A83"/>
<path d="M447.97 240.617L395.101 218.155C395.101 210.809 393.122 205.158 388.881 201.061C387.326 199.507 385.63 198.377 383.792 197.671L437 219.5C438.838 220.348 440.445 221.587 442 223C446.241 226.956 448.111 233.271 447.97 240.617Z" fill="#186981"/>
<path d="M402.593 281.304L349.724 258.842C350.29 258.277 350.714 257.712 351.279 257.146L404.148 279.609C403.583 280.174 403.017 280.739 402.593 281.304Z" fill="#1D7691"/>
<path d="M404.148 279.609L351.28 257.147C352.976 255.31 354.672 253.756 356.651 252.202L409.52 274.664C407.541 276.218 405.703 277.914 404.148 279.609Z" fill="#1E7994"/>
<path d="M409.378 274.805L356.51 252.343C363.295 246.975 371.494 243.443 381.106 241.748C386.195 240.9 391.002 240.617 395.525 240.9L448.5 264C443.976 263.717 439.064 263.221 433.975 264.21C424.504 265.905 416.305 269.437 409.378 274.805Z" fill="#1E7B98"/>
<path d="M448.5 264.001L395.525 241.042C398.776 241.325 402.031 242.153 405 243.001L457.582 265.199C454.755 264.21 451.751 264.284 448.5 264.001Z" fill="#1E7994"/>
<path d="M457 265L399.5 241.5C401.196 242.066 399.056 239.568 400.5 240L463 267C464 267.5 465.039 268.002 465 268C464.5 268 458.499 265.499 457 265Z" fill="#1D7691"/>
<path d="M401 282L348.452 259.548C348.735 259.548 349.018 259.407 349.3 259.266L402.169 281.728C402 282 401 283 401 282Z" fill="#1E7B98"/>
<path d="M402.169 281.727L349.301 259.265L349.442 259.124L402.311 281.586L402.169 281.727Z" fill="#1E7994"/>
<path d="M402.311 281.586L349.442 259.124C349.442 259.124 349.583 258.983 349.583 258.842L402.5 281C402.5 281.141 402.452 281.586 402.311 281.586Z" fill="#1D7691"/>
<path d="M401.179 282.01L348.311 259.548L401.179 282.01C401.321 282.01 401.179 282.01 401.179 282.01Z" fill="#1D7691"/>
<path d="M401.321 282.01L348.452 259.548C348.452 259.548 348.452 259.548 348.594 259.548L401.321 282.01Z" fill="#1E7994"/>
<path d="M392.415 412.827L339.547 390.365C337.992 389.659 336.578 388.952 335.023 388.246C324.28 382.313 316.505 372.706 311.84 359.709C308.447 350.527 306.751 340.072 306.892 328.064L359.761 350.527C359.62 362.535 361.316 372.989 364.709 382.171C369.374 395.309 377.148 404.775 387.892 410.708C389.447 411.414 390.86 412.262 392.415 412.827Z" fill="#186981"/>
<path d="M359.761 350.527L306.893 328.065L307.458 228.327L360.327 250.648L359.761 350.527Z" fill="#196A83"/>
<path d="M360.326 250.648L307.458 228.327C307.458 223.524 307.882 219.003 308.871 214.482L361.74 236.945C360.892 241.324 360.468 245.986 360.326 250.648Z" fill="#186981"/>
<path d="M361.74 236.945L308.872 214.483C309.437 211.516 310.285 208.691 311.133 205.865L364.002 228.327C363.154 231.153 362.306 233.978 361.74 236.945Z" fill="#196B84"/>
<path d="M364.002 228.327L311.133 205.865C311.981 203.604 312.83 201.203 313.961 198.942L366.829 221.405C365.84 223.665 364.85 225.925 364.002 228.327Z" fill="#1A6E87"/>
<path d="M366.829 221.405L313.96 198.943C314.526 197.672 315.233 196.4 315.939 195.129C316.364 194.281 316.929 193.434 317.353 192.586L370.222 215.048C369.656 215.896 369.232 216.743 368.808 217.591C368.101 218.862 367.395 220.134 366.829 221.405Z" fill="#1B718B"/>
<path d="M370.222 215.047L317.353 192.585C318.625 190.466 320.586 187.977 322 185.999L374.5 208.499C373.086 210.477 371.494 212.928 370.222 215.047Z" fill="#1C748E"/>
<path d="M374.462 208.832L322 186C323.696 183.881 324.986 182.132 326.824 180.154L379.693 202.616C377.714 204.594 376.017 206.713 374.462 208.832Z" fill="#1D7691"/>
<path d="M379.693 202.616L326.824 180.154C329.227 177.611 331.913 175.21 334.74 172.949L387.609 195.411C384.64 197.672 382.096 200.073 379.693 202.616Z" fill="#1E7994"/>
<path d="M387.468 195.411L334.599 172.949C336.012 171.819 337.426 170.83 338.84 169.841C348.735 163.201 359.902 158.68 372.625 156.42C379.551 155.149 385.922 154.576 392 154.999L445 178C438.922 177.576 432.42 177.611 425.493 178.882C412.771 181.143 401.604 185.522 391.708 192.303C390.295 193.292 388.881 194.422 387.468 195.411Z" fill="#1E7B98"/>
<path d="M445 178L392 155C395.958 155.283 399.907 156.279 403.441 157.268L456.31 179.73C452.776 178.741 448.817 178.283 445 178Z" fill="#1E7994"/>
<path d="M456.31 179.73L403.441 157.268C404.289 157.55 405.137 157.833 405.844 157.974C406.975 158.398 408.106 158.822 409.237 159.245L462.106 181.708C460.975 181.284 459.844 180.86 458.713 180.436C457.865 180.295 457.158 180.012 456.31 179.73Z" fill="#1D7691"/>
<path d="M486.278 290.487C490.802 299.669 493.064 311.96 492.922 327.359C492.781 340.214 490.943 352.081 487.268 362.818C482.179 376.804 474.404 388.388 463.661 397.712C453.059 407.036 440.478 413.11 426.059 415.653C411.216 418.196 398.494 416.642 387.75 410.709C377.007 404.775 369.232 395.169 364.567 382.172C361.175 372.989 359.478 362.535 359.62 350.527L360.185 250.648C360.327 238.64 363.012 227.621 368.525 217.45C374.038 207.278 381.813 198.943 391.567 192.162C401.462 185.522 412.63 181.002 425.352 178.741C437.792 176.481 448.818 177.046 458.43 180.295C468.043 183.545 475.394 189.195 480.624 197.248C485.854 205.3 488.399 215.189 488.399 226.915V236.239C488.399 237.369 488.116 238.358 487.409 239.205C486.702 240.053 485.854 240.618 485.006 240.759L451.221 246.693C450.232 246.834 449.383 246.552 448.818 245.986C448.111 245.28 447.828 244.432 447.828 243.302V240.336C447.828 232.989 445.849 227.339 441.609 223.242C437.368 219.145 431.996 217.591 425.211 218.862C418.143 220.134 412.206 223.666 407.682 229.458C403.159 235.25 400.897 242.031 400.755 249.659L400.614 280.88C400.614 281.587 400.755 281.869 401.18 282.011C401.745 282.011 402.028 281.728 402.31 281.304C410.227 272.122 420.687 266.471 433.834 264.21C445.425 262.233 455.745 263.363 464.792 267.883C474.121 272.404 481.189 279.892 486.278 290.487ZM447.97 356.884C450.938 350.668 452.352 343.464 452.352 335.27C452.352 326.37 450.938 319.447 447.828 314.22C443.022 306.168 436.095 303.06 426.907 304.614C416.446 306.451 409.237 312.243 405.138 321.99C402.169 328.206 400.755 335.976 400.614 345.018C400.614 352.929 401.745 359.568 404.289 364.654C408.389 373.696 415.74 377.227 426.059 375.391C436.237 373.554 443.446 367.338 447.97 356.884Z" fill="#2395B9"/>
<path d="M293.605 379.77L240.736 357.308C241.019 356.743 241.16 356.178 241.443 355.472L295 378C294.717 378.565 293.887 379.205 293.605 379.77Z" fill="#1A6E87"/>
<path d="M295 378.001L241.443 355.472C242.008 353.918 242.432 352.364 242.715 350.527L296 373.001C295.717 374.838 295.565 376.447 295 378.001Z" fill="#196B84"/>
<path d="M296 373L242.715 350.527C243.422 347.277 243.705 343.604 243.705 339.508C243.705 333.15 242.856 327.5 241.16 322.696L295 345C296.696 349.803 297 355.502 297 362C297 366.097 296.707 369.751 296 373Z" fill="#186981"/>
<path d="M259.395 401.667L206.527 379.205C207.092 379.488 207.799 379.629 208.506 379.911L261.375 402.374C260.668 402.232 259.961 401.95 259.395 401.667Z" fill="#1D7691"/>
<path d="M261.233 402.373L208.365 379.911C209.495 380.194 210.626 380.476 211.899 380.476L264.767 402.938C263.636 402.938 262.364 402.797 261.233 402.373Z" fill="#1E7994"/>
<path d="M264.767 403.08L211.899 380.618C213.736 380.759 215.574 380.618 217.553 380.335C221.794 379.629 225.752 377.793 229.145 375.108L282.013 397.571C278.621 400.255 274.663 402.091 270.422 402.798C268.443 403.08 266.605 403.221 264.767 403.08Z" fill="#1E7B98"/>
<path d="M282.013 397.57L229.145 375.108C229.993 374.402 230.841 373.696 231.689 372.848C231.972 372.565 232.113 372.424 232.396 372.142L285.264 394.604C285.123 394.886 284.84 395.028 284.558 395.31C283.851 396.016 283.003 396.864 282.013 397.57Z" fill="#1E7994"/>
<path d="M285.264 394.604L232.396 372.142C233.244 371.294 234.092 370.305 234.799 369.316L287.668 391.779C286.961 392.767 286.113 393.756 285.264 394.604Z" fill="#1D7691"/>
<path d="M287.667 391.778L234.799 369.316C235.506 368.327 236.212 367.339 236.778 366.35L289.646 388.812C289.081 389.801 288.374 390.79 287.667 391.778Z" fill="#1C748E"/>
<path d="M289.646 388.812L236.778 366.35C237.485 365.219 237.935 364.631 238.5 363.501L291.484 385.421C290.919 386.551 290.353 387.681 289.646 388.812Z" fill="#1B718B"/>
<path d="M291.5 385.501L238.5 363.501C239.207 362.088 239.888 359.992 240.312 358.438L293.5 381.001C293.076 382.555 292.207 384.23 291.5 385.501Z" fill="#1A6E87"/>
<path d="M293.5 381.5L240.312 358.579C240.453 358.155 240.595 357.731 240.736 357.308L294.5 379.5C294.359 379.924 293.642 381.076 293.5 381.5Z" fill="#196B84"/>
<path d="M294.5 345L241.301 322.696C240.029 317.187 237.343 313.231 233.244 310.829C232.537 310.406 231.83 310.123 231.124 309.699L284 331.5C284.707 331.783 285.793 332.076 286.5 332.5C290.599 334.902 293.086 339.49 294.5 345Z" fill="#186981"/>
<path d="M328.379 198.66L275.51 176.198C275.793 176.198 276.076 176.198 276.359 176.198L329.227 198.66C328.945 198.66 328.662 198.66 328.379 198.66Z" fill="#1E7B98"/>
<path d="M329.228 198.66L276.359 176.198C276.5 176.198 276.642 176.198 276.924 176.34L329.793 198.802C329.51 198.66 329.369 198.66 329.228 198.66Z" fill="#1E7994"/>
<path d="M329.793 198.66L276.924 176.198C277.065 176.198 277.065 176.198 277.207 176.34L330.075 198.802C329.934 198.802 329.793 198.802 329.793 198.66Z" fill="#1D7691"/>
<path d="M242.998 380.335L190.129 357.873C190.412 357.873 190.836 357.732 191.119 357.873L243.987 380.335C243.563 380.335 243.281 380.335 242.998 380.335Z" fill="#1E7B98"/>
<path d="M243.846 380.335L190.977 357.873C191.119 357.873 191.401 357.873 191.543 358.014L244.411 380.477C244.27 380.335 244.129 380.335 243.846 380.335Z" fill="#1E7994"/>
<path d="M244.411 380.477L191.543 358.015C191.684 358.015 191.684 358.015 191.825 358.156L244.694 380.618C244.694 380.477 244.553 380.477 244.411 380.477Z" fill="#1D7691"/>
<path d="M248 305L194.511 282.293C195.642 281.162 196.914 280.173 198.187 279.185L251.5 302C250.228 302.989 249.272 303.87 248 305Z" fill="#1E7994"/>
<path d="M251.5 302L198.187 279.184C205.962 273.11 214.867 269.154 224.621 267.318C229.851 266.329 234.94 266.046 239.605 266.47L304.5 291.5C299.694 291.076 283.231 289.511 278 290.5C268.246 292.337 259.275 295.784 251.5 302Z" fill="#1E7B98"/>
<path d="M292.474 288.933L239.605 266.471C242.856 266.753 245.966 267.318 249.076 268.166L301.945 290.628C298.835 289.78 295.725 289.215 292.474 288.933Z" fill="#1E7994"/>
<path d="M301.945 290.628L249.076 268.166C250.772 268.731 252.61 269.296 254.165 270.003L307.034 292.465C305.337 291.758 303.641 291.193 301.945 290.628Z" fill="#1D7691"/>
<path d="M246.108 305.321L193.239 282.858L246.108 305.321Z" fill="#1D7691"/>
<path d="M246.108 305.321L193.239 282.858C193.239 282.858 193.239 282.858 193.38 282.858L246.108 305.321C246.249 305.462 246.108 305.462 246.108 305.321Z" fill="#1E7994"/>
<path d="M246.249 305.461L193.38 282.999H193.522C193.663 282.999 193.946 282.858 194.229 282.575L247.097 305.037C246.814 305.179 246.532 305.32 246.249 305.461C246.39 305.461 246.249 305.461 246.249 305.461Z" fill="#1E7B98"/>
<path d="M246.5 306L194.229 282.576C194.37 282.434 194.511 282.434 194.511 282.293L248 304.5C247.859 304.641 246.641 305.859 246.5 306Z" fill="#1E7994"/>
<path d="M208.082 386.551L155.213 364.089C155.213 364.089 189.281 358.155 190.129 357.873C190.977 357.731 191.543 357.731 192.815 358.438C194.37 359.144 244.553 380.335 244.553 380.335H242.998L208.082 386.551Z" fill="#20819F"/>
<path d="M236.919 440.093L184.051 417.631C182.354 416.925 180.799 416.218 179.244 415.229C168.218 409.155 160.444 399.548 155.92 386.41C154.082 381.042 152.669 375.109 151.679 368.893L204.548 391.355C205.537 397.571 207.5 403 208.789 408.872C213.312 422.011 221.087 431.617 232.113 437.692C233.668 438.681 235.223 439.387 236.919 440.093Z" fill="#186981"/>
<path d="M204.548 391.496L151.679 369.034V368.327L204.548 390.789V391.496Z" fill="#196A83"/>
<path d="M204.548 390.79L151.679 368.327C151.679 367.904 151.679 367.48 151.821 367.197L204.689 389.659C205 390 204.548 390.366 204.548 390.79Z" fill="#186981"/>
<path d="M204.689 389.659L151.821 367.197C151.821 367.056 151.962 366.773 151.962 366.632L204.831 389.094C205 389.5 204.689 389.377 204.689 389.659Z" fill="#196B84"/>
<path d="M204.831 389.094L151.962 366.632C151.962 366.491 152.103 366.349 152.103 366.208L204.972 388.67C204.972 388.811 204.831 388.953 204.831 389.094Z" fill="#1A6E87"/>
<path d="M204.972 388.67L152.103 366.208C152.103 366.067 152.245 365.926 152.245 365.926L205.113 388.388C205.113 388.388 205.113 388.596 204.972 388.67Z" fill="#1B718B"/>
<path d="M205.113 388.387L152.245 365.925C152.245 365.784 152.5 365.641 152.5 365.5L205.5 388C205.5 388 205.255 388.246 205.113 388.387Z" fill="#1C748E"/>
<path d="M205.396 387.963L152.527 365.501C152.669 365.36 152.669 365.36 152.81 365.219L205.679 387.681C205.537 387.822 205.396 387.963 205.396 387.963Z" fill="#1D7691"/>
<path d="M205.5 388L152.5 365.5C152.5 365.5 152.951 364.937 153.093 364.937L205.961 387.399C205.82 387.54 205.641 388 205.5 388Z" fill="#1E7994"/>
<path d="M206 387.5L153.093 364.937C153.658 364.513 154.365 364.23 155.213 364.089L208.082 386.551C207.234 386.692 206.565 387.076 206 387.5Z" fill="#1E7B98"/>
<path d="M206.951 361.122L154.082 338.66C153.8 338.519 153.517 338.378 153.234 338.095C152.527 337.389 152.245 336.541 152.245 335.411L205.113 357.873C205.113 359.003 205.396 359.851 206.103 360.557C206.244 360.84 206.527 360.981 206.951 361.122Z" fill="#186981"/>
<path d="M209.354 219.71L157 197L275.51 176.198L328.379 198.66L209.354 219.71Z" fill="#20819F"/>
<path d="M204.972 357.873L152.245 335.411L152.951 201.769L205.82 224.231L204.972 357.873Z" fill="#196A83"/>
<path d="M205.82 224.23L152.951 201.768C152.951 201.486 152.951 201.062 153.093 200.779L205.961 223.241C205.82 223.524 205.82 223.948 205.82 224.23Z" fill="#186981"/>
<path d="M205.961 223.242L153.093 200.78C153.093 200.639 153.234 200.356 153.234 200.215L206.103 222.677C205.961 222.818 205.961 223.101 205.961 223.242Z" fill="#196B84"/>
<path d="M206.103 222.677L153.234 200.215C153.234 200.074 153.375 199.932 153.375 199.791L206.244 222.253C206.244 222.394 206.103 222.536 206.103 222.677Z" fill="#1A6E87"/>
<path d="M206.244 222.253L153.375 199.791C153.375 199.65 153.859 199.141 154 199L206.5 221.5C206.359 221.641 206.385 222.112 206.244 222.253Z" fill="#1B718B"/>
<path d="M206.527 221.688L154 200C154 200 153.559 199.698 154 199L206.81 221.264C206.668 221.405 206.668 221.546 206.527 221.688Z" fill="#1C748E"/>
<path d="M206.81 221.264L154 199C154.141 198.859 154.359 198.641 154.5 198.5L207.234 220.84C207.092 220.981 206.951 221.123 206.81 221.264Z" fill="#1D7691"/>
<path d="M207.234 220.84L154.5 198.5C154.641 198.359 154.859 198.141 155 198L207.658 220.416C207.516 220.557 207.375 220.699 207.234 220.84Z" fill="#1E7994"/>
<path d="M207.658 220.417L155 198C155.424 197.576 156.435 197.141 157 197L209.5 219.5C209.076 219.5 208.223 219.993 207.658 220.417Z" fill="#1E7B98"/>
<path d="M328.379 198.661C329.369 198.52 330.217 198.802 330.782 199.367C331.489 200.074 331.772 200.921 331.772 202.051L331.63 234.261C331.63 235.391 331.348 236.38 330.641 237.228C329.934 238.076 329.086 238.641 328.238 238.782L247.804 252.909C246.814 253.05 246.39 253.757 246.39 254.887L245.825 304.049C245.825 305.038 246.108 305.462 246.532 305.462C246.814 305.462 247.097 305.179 247.521 304.756C256.286 296.844 266.181 291.9 277.631 289.922C291.06 287.521 302.793 289.357 312.83 295.432C322.866 301.506 329.934 310.972 334.175 323.969C337.002 334.281 338.416 344.594 338.274 354.766C338.274 366.067 336.578 376.521 333.468 386.128C328.945 401.103 321.17 413.676 309.861 423.847C298.694 434.16 285.547 440.517 270.563 443.201C256.003 445.744 243.139 444.049 232.113 437.833C221.087 431.758 213.312 422.152 208.789 409.014C206.951 403.645 205.537 397.712 204.548 391.496V390.79C204.548 388.388 205.679 386.975 208.082 386.552L242.998 380.336C244.977 380.053 246.108 381.042 246.673 383.302C246.814 384.574 247.097 385.704 247.521 386.41C247.945 387.258 248.228 387.964 248.369 388.529C250.207 393.898 253.176 397.853 256.992 400.255C260.809 402.657 265.333 403.363 270.563 402.515C275.935 401.526 280.6 399.125 284.699 395.028C288.798 390.931 291.767 385.845 293.746 379.488C295.725 374.685 296.715 368.751 296.715 361.688C296.715 355.331 295.866 349.68 294.17 344.877C292.898 339.367 290.212 335.411 286.113 333.01C282.154 330.608 277.348 329.902 271.977 330.891C266.605 331.88 261.516 334.14 256.992 337.813C252.328 341.486 249.218 345.866 247.663 350.669C247.097 352.929 245.825 354.342 243.846 354.624L208.365 360.84C207.375 360.982 206.527 360.84 205.961 360.134C205.255 359.428 204.972 358.58 204.972 357.45L205.82 223.807C205.82 222.677 206.103 221.688 206.81 220.841C207.516 219.993 208.365 219.428 209.213 219.287L328.379 198.661Z" fill="#2395B9"/>
<path d="M84.1092 207.419L66.7219 210.386V94.2613L84.1092 90.3057V207.419Z" fill="white"/>
<path opacity="0.7" fill-rule="evenodd" clip-rule="evenodd" d="M580 49.1951C580 45.522 579.011 42.8379 577.032 41.0014C575.053 39.1648 572.367 38.5997 568.974 39.1648C565.581 39.7299 562.896 41.2839 560.917 43.8268C558.938 46.3697 557.948 49.4776 557.948 53.1507L557.807 67.1365C557.807 70.8096 558.796 73.635 560.775 75.4715C562.754 77.308 565.44 77.8731 568.833 77.308C572.225 76.743 574.911 75.189 576.89 72.6461C578.869 70.1032 579.859 66.9952 579.859 63.1809L580 49.1951ZM573.498 50.184L573.356 64.7349C573.356 66.4302 572.932 67.7016 572.084 68.8318C571.377 69.9619 570.246 70.527 568.833 70.8096C567.419 71.0921 566.43 70.8096 565.581 69.9619C564.875 69.1143 564.451 67.9841 564.451 66.2889L564.592 51.738C564.592 50.184 565.016 48.7713 565.864 47.6411C566.712 46.5109 567.702 45.9458 569.115 45.6633C570.529 45.3808 571.519 45.6633 572.367 46.5109C573.074 47.3586 573.498 48.4887 573.498 50.184ZM548.053 46.0873C550.032 47.9238 551.021 50.608 551.021 54.281L550.88 68.2669C550.88 72.0812 549.891 75.1892 547.911 77.732C545.932 80.2749 543.247 81.8289 539.854 82.394C536.461 82.9591 533.775 82.394 531.796 80.5575C529.817 78.7209 528.828 75.8955 528.828 72.2225L528.969 58.2366C528.969 54.5636 529.959 51.4556 531.938 48.9127C533.917 46.3698 536.603 44.8158 539.995 44.2508C543.388 43.6857 546.074 44.2508 548.053 46.0873ZM544.377 69.8208L544.519 55.2699C544.519 53.5747 544.095 52.4445 543.388 51.5969C542.54 50.7492 541.55 50.4667 540.137 50.7492C538.723 51.0318 537.734 51.7381 536.885 52.727C536.037 53.8572 535.613 55.2699 535.613 56.8239L535.33 71.5161C535.33 73.2114 535.755 74.3415 536.603 75.1891C537.451 76.0368 538.44 76.3193 539.854 76.0368C541.268 75.7542 542.398 75.1891 543.105 74.059C543.953 72.9288 544.377 71.5161 544.377 69.8208ZM522.043 59.367C522.043 55.6939 521.053 53.0098 519.074 51.1732C517.095 49.3367 514.409 48.7716 511.017 49.3367C507.624 49.9018 504.938 51.4558 502.959 53.9986C500.98 56.5415 499.99 59.6495 499.99 63.3225L499.849 77.3084C499.849 80.9814 500.839 83.8069 502.818 85.6434C504.797 87.4799 507.483 88.045 510.875 87.4799C514.268 86.9148 516.954 85.3609 518.933 82.818C520.912 80.2751 521.901 77.1671 521.901 73.3528L522.043 59.367ZM515.54 60.4971L515.399 75.0481C515.399 76.602 514.975 78.0148 514.127 79.1449C513.42 80.2751 512.289 80.8402 510.875 81.1227C509.462 81.4053 508.472 81.1227 507.624 80.2751C506.917 79.4275 506.493 78.2973 506.493 76.602L506.634 62.0511C506.634 60.4971 507.058 59.0844 507.907 57.9542C508.755 56.8241 509.744 56.259 511.158 55.9764C512.43 55.6939 513.561 55.9764 514.409 56.8241C515.116 57.6717 515.54 58.8019 515.54 60.4971ZM478.221 58.3773C480.2 60.2139 481.19 62.898 481.19 66.5711L481.048 80.5569C481.048 84.3712 480.059 87.4792 478.08 90.0221C476.101 92.5649 473.415 94.1189 470.022 94.684C466.63 95.2491 463.944 94.684 461.965 92.8475C459.986 91.011 458.996 88.1855 458.996 84.5125L459.137 70.5266C459.137 66.8536 460.127 63.7456 462.106 61.2028C464.085 58.6599 466.771 57.1059 470.164 56.5408C473.556 55.9757 476.242 56.5408 478.221 58.3773ZM474.546 82.2522L474.687 67.7012C474.687 66.006 474.263 64.8758 473.415 64.0282C472.567 63.1805 471.577 62.898 470.164 63.1805C468.75 63.4631 467.76 64.1694 466.912 65.1583C466.064 66.2885 465.64 67.7012 465.64 69.2552L465.499 83.8061C465.499 85.5014 465.923 86.6316 466.63 87.4792C467.478 88.3268 468.467 88.6094 469.881 88.3268C471.294 88.0443 472.425 87.4792 473.132 86.349C474.122 85.2188 474.546 83.8061 474.546 82.2522ZM452.211 71.6574C452.211 67.9843 451.221 65.3002 449.242 63.4637C447.263 61.7684 444.577 61.062 441.185 61.6271C437.792 62.1922 435.106 63.7462 433.127 66.2891C431.148 68.832 430.159 71.9399 430.159 75.613L430.017 89.5988C430.017 93.2719 431.007 96.0973 432.986 97.9338C434.965 99.7703 437.651 100.335 441.043 99.7703C444.436 99.2053 447.122 97.6513 449.101 95.1084C451.08 92.5655 452.069 89.4576 452.069 85.6432L452.211 71.6574ZM445.708 72.7876L445.567 87.3385C445.567 88.8925 445.143 90.3052 444.295 91.4353C443.588 92.5655 442.457 93.1306 441.043 93.4131C439.63 93.6957 438.64 93.4131 437.792 92.5655C437.085 91.7179 436.661 90.5877 436.661 88.8925L436.803 74.3415C436.803 72.7876 437.227 71.3748 438.075 70.2447C438.923 69.1145 439.913 68.5494 441.326 68.2669C442.74 67.9843 443.729 68.2669 444.577 69.1145C445.284 69.9621 445.708 71.0923 445.708 72.7876ZM417.719 67.2784C416.164 66.5721 414.185 66.4308 412.064 66.8546C410.227 67.1371 408.389 67.8435 406.693 68.6911C405.138 69.8213 403.866 71.0927 402.876 72.788C402.028 74.4832 401.462 76.1785 401.321 78.1563V80.6992C401.321 80.8405 401.321 80.9817 401.462 81.123C401.604 81.2643 401.745 81.2643 401.886 81.2643L407.258 80.2754C407.4 80.2754 407.541 80.1341 407.682 79.9929L407.682 79.9928C407.824 79.8516 407.824 79.7103 407.824 79.569V78.2976C407.824 77.0261 408.248 75.896 408.954 74.9071C409.661 74.0594 410.651 73.4944 411.923 73.2118C413.054 73.0705 414.185 73.2118 414.892 73.9182C415.598 74.6245 416.022 75.4721 416.022 76.7436C416.022 78.5801 414.609 81.4055 411.782 85.5024C410.792 86.7738 409.944 88.0452 409.096 89.3166L409.096 89.3167C408.672 89.8818 407.682 91.2945 406.127 93.5549C404.572 95.8152 403.017 97.9343 401.462 99.9121L401.462 99.9122C401.321 100.195 401.18 100.477 401.18 100.76V105.704C401.18 105.845 401.18 105.987 401.321 106.128C401.462 106.269 401.604 106.269 401.745 106.269L422.525 102.596C422.666 102.596 422.808 102.455 422.949 102.314C423.09 102.172 423.09 102.031 423.09 101.89V101.89V96.8041V96.804C423.09 96.6628 423.09 96.5215 422.949 96.3803C422.808 96.239 422.666 96.239 422.525 96.239L410.085 98.4993L409.944 98.3581V98.0755L410.651 97.0866L410.652 97.0854C412.772 94.2606 414.468 92.0007 415.598 90.4469C416.729 88.8929 417.719 87.3389 418.708 85.7849C419.981 83.8071 420.97 81.9706 421.677 80.2754C422.384 78.5801 422.666 77.0261 422.666 75.4721C422.666 73.4944 422.242 71.7991 421.394 70.3864C420.546 68.9737 419.274 67.9848 417.719 67.2784Z" fill="#C5CCD4"/>
<path fill-rule="evenodd" clip-rule="evenodd" d="M107.575 94.4023C107.575 93.1309 106.727 92.2833 105.596 92.4245C104.465 92.5658 103.617 93.696 103.617 95.1087C103.617 96.3801 104.465 97.2277 105.596 97.0865C106.727 96.8039 107.575 95.6738 107.575 94.4023ZM92.5478 97.9376C93.0667 96.7168 92.7301 95.4057 91.796 95.0091C90.8618 94.6125 89.6839 95.2807 89.165 96.5015C88.646 97.7223 88.9826 99.0334 89.9167 99.43C90.8509 99.8266 92.0288 99.1584 92.5478 97.9376ZM78.1719 99.4883C78.1719 98.2168 77.3238 97.3692 76.1929 97.5105C75.062 97.793 74.2139 98.9232 74.2139 100.195C74.2139 101.466 75.062 102.314 76.1929 102.172C77.3238 101.89 78.1719 100.76 78.1719 99.4883ZM61.4915 100.194C62.6224 100.053 63.4705 100.9 63.4705 102.172C63.4705 103.443 62.6224 104.573 61.4915 104.856C60.3606 104.997 59.5125 104.15 59.5125 102.878C59.5125 101.607 60.3606 100.335 61.4915 100.194ZM47.6629 102.754C48.597 103.151 48.9336 104.462 48.4147 105.683C47.8958 106.904 46.7178 107.572 45.7837 107.175C44.8495 106.779 44.513 105.467 45.0319 104.247C45.5508 103.026 46.7288 102.358 47.6629 102.754ZM32.0887 105.28C33.2196 105.139 34.0678 105.986 34.0678 107.258C34.0678 108.529 33.2196 109.659 32.0887 109.942C30.9579 110.083 30.1097 109.236 30.1097 107.964C29.9683 106.693 30.9579 105.563 32.0887 105.28ZM19.3661 109.942C19.3661 108.671 18.518 107.823 17.3871 107.965C16.2562 108.106 15.2667 109.377 15.408 110.649C15.408 111.92 16.2562 112.768 17.3871 112.627C18.518 112.344 19.3661 111.214 19.3661 109.942ZM4.22623 113.557C4.74517 112.336 4.40858 111.025 3.47444 110.628C2.54031 110.232 1.36237 110.9 0.843428 112.121C0.324491 113.341 0.661068 114.653 1.5952 115.049C2.52934 115.446 3.70729 114.778 4.22623 113.557ZM107.009 178.883C107.009 177.611 106.161 176.764 105.03 176.905C104.041 177.046 103.051 178.318 103.051 179.589C103.051 180.861 103.899 181.708 105.03 181.567C106.161 181.284 107.009 180.154 107.009 178.883ZM90.3289 179.447C91.4598 179.306 92.3079 180.153 92.3079 181.425C92.3079 182.696 91.4598 183.826 90.3289 184.109C89.198 184.25 88.3499 183.403 88.3499 182.131C88.3499 180.86 89.3394 179.73 90.3289 179.447ZM77.6065 184.109C77.6065 182.838 76.7584 181.99 75.6275 182.132C74.4966 182.273 73.6484 183.544 73.6484 184.816C73.6484 186.087 74.4966 186.935 75.6275 186.794C76.7584 186.511 77.6065 185.381 77.6065 184.109ZM60.9261 184.675C62.0569 184.533 62.9051 185.381 62.9051 186.652C62.9051 187.924 62.0569 189.054 60.9261 189.336C59.7952 189.478 58.947 188.63 58.947 187.359C58.947 186.087 59.7952 184.816 60.9261 184.675ZM48.2037 189.195C48.2037 187.924 47.3555 187.076 46.2246 187.217C45.0938 187.5 44.2456 188.63 44.2456 189.902C44.2456 191.173 45.0938 192.021 46.2246 191.879C47.3555 191.597 48.2037 190.467 48.2037 189.195ZM31.5232 189.902C32.6541 189.761 33.5023 190.608 33.5023 191.88C33.5023 193.151 32.6541 194.281 31.5232 194.564C30.3923 194.705 29.5442 193.858 29.5442 192.586C29.5442 191.315 30.3923 190.043 31.5232 189.902ZM18.8009 194.422C18.8009 193.15 17.9527 192.303 16.8218 192.444C15.6909 192.727 14.8428 193.857 14.8428 195.128C14.8428 196.4 15.6909 197.247 16.8218 197.106C17.9527 196.823 18.8009 195.693 18.8009 194.422ZM4.09944 197.106C4.09944 195.835 3.25128 194.987 2.1204 195.129C0.989517 195.27 0.141357 196.4 0.141357 197.813C0.141357 199.084 0.989517 199.932 2.1204 199.791C3.25128 199.508 4.09944 198.378 4.09944 197.106ZM1.97904 211.94C3.10992 211.799 3.95808 212.647 3.95808 213.918C3.95808 215.189 3.10992 216.32 1.97904 216.602C0.84816 216.743 0 215.896 0 214.624C0 213.353 0.84816 212.223 1.97904 211.94ZM18.6593 211.375C18.6593 210.104 17.8111 209.256 16.6802 209.397C15.5493 209.68 14.7012 210.81 14.7012 212.081C14.7012 213.353 15.5493 214.2 16.6802 214.059C17.8111 213.777 18.6593 212.646 18.6593 211.375ZM31.3819 206.854C32.5128 206.713 33.3609 207.561 33.3609 208.832C33.3609 210.103 32.5128 211.234 31.3819 211.516C30.251 211.657 29.4028 210.81 29.4028 209.538C29.4028 208.267 30.3924 206.995 31.3819 206.854ZM48.0623 206.147C48.0623 204.876 47.2142 204.028 46.0833 204.17C45.0938 204.452 44.1042 205.582 44.1042 206.854C44.1042 208.125 44.9524 208.973 46.0833 208.832C47.2142 208.549 48.0623 207.419 48.0623 206.147ZM60.7847 201.627C61.9156 201.485 62.7637 202.333 62.7637 203.604C62.7637 204.876 61.9156 206.006 60.7847 206.289C59.6538 206.43 58.8057 205.582 58.8057 204.311C58.8057 203.039 59.7952 201.768 60.7847 201.627ZM77.6063 201.062C77.6063 199.791 76.7582 198.943 75.6273 199.085C74.4964 199.226 73.5069 200.356 73.6483 201.769C73.6483 203.04 74.4964 203.888 75.6273 203.747C76.7582 203.464 77.6063 202.334 77.6063 201.062ZM90.3289 196.4C91.4598 196.259 92.3079 197.106 92.3079 198.378C92.3079 199.649 91.4598 200.78 90.3289 201.062C89.198 201.203 88.3499 200.356 88.3499 199.084C88.3499 197.813 89.198 196.683 90.3289 196.4ZM107.009 195.835C107.009 194.563 106.161 193.716 105.03 193.857C103.899 193.998 103.051 195.27 103.051 196.541C103.051 197.813 103.899 198.66 105.03 198.519C106.161 198.237 107.009 197.106 107.009 195.835ZM2.54423 127.46C3.6751 127.318 4.52326 128.166 4.52326 129.437C4.52326 130.709 3.6751 131.839 2.54423 132.122C1.41335 132.263 0.565186 131.415 0.565186 130.144C0.565186 128.872 1.41335 127.601 2.54423 127.46ZM19.2249 126.895C19.2249 125.623 18.3768 124.775 17.2459 124.917C16.115 125.058 15.2668 126.329 15.2668 127.601C15.2668 128.872 16.115 129.72 17.2459 129.579C18.3768 129.296 19.2249 128.166 19.2249 126.895ZM31.9473 122.232C33.0782 122.091 33.9263 122.939 33.9263 124.21C33.9263 125.481 33.0782 126.612 31.9473 126.894C30.8164 127.035 29.9683 126.188 29.9683 124.916C29.9683 123.645 30.8164 122.515 31.9473 122.232ZM48.6278 121.668C48.6278 120.397 47.7796 119.549 46.6487 119.69C45.5178 119.831 44.6697 121.103 44.6697 122.374C44.6697 123.646 45.5178 124.493 46.6487 124.352C47.7796 124.07 48.6278 122.939 48.6278 121.668ZM61.3501 117.147C62.481 117.006 63.3292 117.854 63.3292 119.125C63.3292 120.396 62.481 121.527 61.3501 121.809C60.2193 121.809 59.3711 120.962 59.3711 119.69C59.3711 118.419 60.2193 117.288 61.3501 117.147ZM78.0306 116.44C78.0306 115.169 77.1824 114.321 76.0515 114.463C74.9207 114.745 74.0725 115.875 74.0725 117.147C74.0725 118.418 74.9207 119.266 76.0515 119.125C77.1824 118.842 78.0306 117.712 78.0306 116.44ZM90.753 111.92C91.8839 111.778 92.732 112.626 92.732 113.897C92.732 115.169 91.8839 116.299 90.753 116.582C89.6221 116.864 88.7739 115.875 88.7739 114.604C88.7739 113.332 89.6221 112.061 90.753 111.92ZM107.433 111.354C107.433 110.083 106.585 109.235 105.454 109.377C104.324 109.518 103.475 110.648 103.475 112.061C103.475 113.332 104.324 114.18 105.454 114.039C106.585 113.756 107.433 112.626 107.433 111.354ZM4.05435 147.403C4.57329 146.183 4.2367 144.872 3.30257 144.475C2.36843 144.078 1.19049 144.747 0.671553 145.967C0.152616 147.188 0.489193 148.499 1.42333 148.896C2.35746 149.292 3.53541 148.624 4.05435 147.403ZM19.0836 143.848C19.0836 142.576 18.2354 141.729 17.1045 141.87C15.9736 142.011 15.1255 143.141 15.1255 144.554C15.1255 145.825 15.9736 146.673 17.1045 146.532C18.2354 146.249 19.0836 145.119 19.0836 143.848ZM31.8059 139.185C32.9368 139.044 33.785 139.892 33.785 141.163C33.785 142.435 32.9368 143.565 31.8059 143.847C30.6751 143.988 29.8269 143.141 29.8269 141.869C29.8269 140.598 30.6751 139.468 31.8059 139.185ZM47.4356 136.731C48.3698 137.127 48.7063 138.439 48.1874 139.659C47.6685 140.88 46.4905 141.548 45.5564 141.152C44.6222 140.755 44.2857 139.444 44.8046 138.223C45.3235 137.002 46.5015 136.334 47.4356 136.731ZM61.2088 134.099C62.3397 133.958 63.1878 134.806 63.1878 136.077C63.1878 137.349 62.3397 138.479 61.2088 138.761C60.0779 138.903 59.2297 138.055 59.2297 136.783C59.2297 135.512 60.2193 134.241 61.2088 134.099ZM77.8892 133.393C77.8892 132.121 77.0411 131.273 75.9102 131.415C74.9207 131.697 73.9312 132.827 73.9312 134.099C73.9312 135.37 74.7793 136.218 75.9102 136.077C77.0411 135.794 77.8892 134.664 77.8892 133.393ZM92.3205 131.914C92.8394 130.693 92.5028 129.382 91.5687 128.986C90.6345 128.589 89.4566 129.257 88.9377 130.478C88.4187 131.699 88.7553 133.01 89.6894 133.407C90.6236 133.803 91.8015 133.135 92.3205 131.914ZM107.434 128.308C107.434 127.036 106.585 126.189 105.454 126.33C104.324 126.471 103.334 127.601 103.475 129.014C103.475 130.285 104.324 131.133 105.454 130.992C106.585 130.709 107.434 129.579 107.434 128.308ZM2.26151 161.365C3.39239 161.224 4.24055 162.071 4.24055 163.343C4.24055 164.614 3.39239 165.744 2.26151 166.027C1.13063 166.168 0.282471 165.321 0.282471 164.049C0.282471 162.778 1.27199 161.506 2.26151 161.365ZM18.9422 160.8C18.9422 159.528 18.094 158.681 16.9632 158.822C15.9736 158.963 14.9841 160.093 14.9841 161.506C14.9841 162.778 15.8323 163.625 16.9632 163.484C18.094 163.201 18.9422 162.071 18.9422 160.8ZM31.6646 156.137C32.7955 155.996 33.6436 156.844 33.6436 158.115C33.6436 159.387 32.7955 160.517 31.6646 160.799C30.5337 160.941 29.6855 160.093 29.6855 158.822C29.6855 157.55 30.6751 156.42 31.6646 156.137ZM48.4865 155.572C48.4865 154.301 47.6383 153.453 46.5074 153.594C45.3766 153.736 44.387 155.007 44.5284 156.279C44.5284 157.55 45.3766 158.398 46.5074 158.256C47.6383 157.974 48.4865 156.844 48.4865 155.572ZM61.2088 151.052C62.3397 150.911 63.1878 151.759 63.1878 153.03C63.1878 154.302 62.3397 155.432 61.2088 155.714C60.0779 155.856 59.2297 155.008 59.2297 153.737C59.2297 152.465 60.0779 151.194 61.2088 151.052ZM77.8892 150.346C77.8892 149.074 77.0411 148.227 75.9102 148.368C74.7793 148.65 73.9312 149.781 73.9312 151.052C73.9312 152.323 74.7793 153.171 75.9102 153.03C77.0411 152.747 77.8892 151.617 77.8892 150.346ZM90.6116 145.825C91.7425 145.684 92.5907 146.531 92.5907 147.803C92.5907 149.074 91.7425 150.204 90.6116 150.487C89.4807 150.628 88.6326 149.781 88.6326 148.509C88.6326 147.238 89.4807 145.966 90.6116 145.825ZM107.292 145.26C107.292 143.988 106.444 143.141 105.313 143.282C104.182 143.423 103.334 144.553 103.334 145.966C103.334 147.238 104.182 148.085 105.313 147.944C106.444 147.661 107.292 146.531 107.292 145.26ZM3.82706 181.38C4.34599 180.159 4.00941 178.848 3.07527 178.452C2.14114 178.055 0.963196 178.723 0.444258 179.944C-0.0746792 181.165 0.261898 182.476 1.19603 182.872C2.13017 183.269 3.30812 182.601 3.82706 181.38ZM18.9422 177.752C18.9422 176.48 18.094 175.633 16.9632 175.774C15.8323 175.915 14.9841 177.046 14.9841 178.458C14.9841 179.73 15.8323 180.577 16.9632 180.436C18.094 180.154 18.9422 179.023 18.9422 177.752ZM31.6646 173.091C32.7955 172.949 33.6436 173.797 33.6436 175.068C33.6436 176.34 32.7955 177.47 31.6646 177.752C30.5337 177.894 29.6855 177.046 29.6855 175.775C29.6855 174.503 30.5337 173.373 31.6646 173.091ZM47.2637 170.576C48.1979 170.973 48.5345 172.284 48.0155 173.505C47.4966 174.726 46.3186 175.394 45.3845 174.997C44.4504 174.601 44.1138 173.29 44.6327 172.069C45.1517 170.848 46.3296 170.18 47.2637 170.576ZM61.0674 168.005C62.1983 167.863 63.0465 168.711 63.0465 169.982C63.0465 171.254 62.1983 172.384 61.0674 172.667C59.9365 172.808 59.0884 171.96 59.0884 170.689C59.0884 169.276 59.9365 168.146 61.0674 168.005ZM77.7479 167.298C77.7479 166.026 76.8997 165.179 75.7688 165.32C74.638 165.603 73.7898 166.733 73.7898 168.004C73.7898 169.276 74.638 170.123 75.7688 169.982C76.8997 169.699 77.7479 168.569 77.7479 167.298ZM92.1486 165.761C92.6675 164.54 92.3309 163.229 91.3968 162.832C90.4627 162.436 89.2847 163.104 88.7658 164.325C88.2469 165.546 88.5834 166.857 89.5176 167.253C90.4517 167.65 91.6296 166.982 92.1486 165.761ZM107.151 162.213C107.151 160.941 106.303 160.094 105.172 160.235C104.041 160.376 103.193 161.507 103.193 162.919C103.193 164.191 104.041 165.038 105.172 164.897C106.303 164.614 107.151 163.484 107.151 162.213Z" fill="#DF9764"/>
<path opacity="0.7" d="M547.911 316.198C552.435 325.38 554.697 337.671 554.555 353.07C554.414 365.925 552.576 377.792 548.901 388.529C543.812 402.514 536.037 414.099 525.294 423.423C514.692 432.747 502.111 438.821 487.692 441.364C472.849 443.907 460.127 442.353 449.383 436.42C438.64 430.486 430.865 420.88 426.2 407.883C422.808 398.7 421.111 388.246 421.253 376.238L421.818 276.359C421.96 264.351 424.645 253.332 430.158 243.161C435.671 232.989 443.446 224.654 453.2 217.873C463.095 211.233 474.263 206.713 486.985 204.452C499.425 202.192 510.451 202.757 520.063 206.006C529.676 209.256 537.027 214.906 542.257 222.959C547.487 231.011 550.032 240.9 550.032 252.626V261.95C550.032 263.08 549.749 264.069 549.042 264.916C548.335 265.764 547.487 266.329 546.639 266.47L512.854 272.404C511.865 272.545 511.016 272.262 510.451 271.697C509.744 270.991 509.461 270.143 509.461 269.013V266.047C509.461 258.7 507.482 253.05 503.242 248.953C499.001 244.856 493.629 243.302 486.844 244.573C479.776 245.845 473.839 249.377 469.315 255.169C464.792 260.961 462.53 267.742 462.389 275.37L462.247 306.591C462.247 307.298 462.389 307.58 462.813 307.722C463.378 307.722 463.661 307.439 463.944 307.015C471.86 297.833 482.32 292.182 495.467 289.921C507.058 287.944 517.378 289.074 526.425 293.594C535.613 298.115 542.822 305.602 547.911 316.198ZM509.461 382.736C512.43 376.521 513.844 369.316 513.844 361.122C513.844 352.222 512.43 345.3 509.32 340.073C504.514 332.02 497.587 328.912 488.399 330.466C477.938 332.303 470.729 338.095 466.629 347.843C463.661 354.058 462.247 361.828 462.106 370.87C462.106 378.781 463.237 385.421 465.781 390.506C469.881 399.548 477.231 403.08 487.551 401.243C497.729 399.265 504.938 393.191 509.461 382.736Z" stroke="#D8DFE8" stroke-width="2" stroke-miterlimit="10"/>
<path fill-rule="evenodd" clip-rule="evenodd" d="M269.149 331.88C269.326 331.844 269.503 331.809 269.715 331.738L292.898 341.627C292.898 341.91 293.039 342.192 293.181 342.475L268.584 332.021C268.796 331.95 268.973 331.915 269.149 331.88ZM259.82 336.117C259.678 336.188 259.572 336.258 259.466 336.329C259.36 336.4 259.254 336.47 259.113 336.541L295.867 352.222C295.867 352.081 295.831 351.94 295.796 351.798L295.796 351.798C295.761 351.657 295.725 351.516 295.725 351.374L259.82 336.117ZM243.705 355.048L242.432 355.33L294.453 377.51C294.594 377.227 294.594 377.086 294.594 376.804V376.804L243.705 355.048ZM239.181 361.688C239.11 361.758 239.075 361.864 239.04 361.97C239.004 362.076 238.969 362.182 238.898 362.253L291.767 384.856V384.715C291.854 384.627 291.888 384.54 291.934 384.419C291.962 384.345 291.996 384.258 292.05 384.15L239.181 361.688ZM249.885 392.422L249.885 392.422L249.885 392.422C249.85 392.343 249.817 392.269 249.783 392.202L273.108 402.232H272.966H272.825C272.754 402.232 272.648 402.268 272.542 402.303L272.542 402.303L272.542 402.303C272.436 402.338 272.33 402.374 272.259 402.374H271.977L250.349 393.191C250.133 392.975 249.999 392.677 249.885 392.422ZM235.223 368.751C235.152 368.822 235.117 368.892 235.082 368.963C235.046 369.034 235.011 369.104 234.94 369.175C234.94 369.245 234.905 369.281 234.87 369.316C234.834 369.351 234.799 369.387 234.799 369.457L287.668 391.919C287.722 391.865 287.755 391.811 287.784 391.765C287.83 391.691 287.863 391.637 287.95 391.637C287.95 391.566 287.986 391.531 288.021 391.496C288.056 391.46 288.092 391.425 288.092 391.354L235.223 368.751ZM246.532 383.019C246.391 382.595 246.249 382.313 246.108 382.03L282.296 397.429C282.013 397.57 281.872 397.711 281.731 397.853C281.731 397.994 281.589 397.994 281.589 397.994L246.532 383.019ZM253.176 341.769C253.133 341.811 253.09 341.867 253.043 341.928C252.936 342.068 252.807 342.235 252.61 342.334L296.573 361.123V360.416L253.176 341.769ZM248.511 348.903C248.546 348.797 248.582 348.691 248.652 348.55L296.291 368.893C296.149 369.175 296.149 369.317 296.149 369.599L248.37 349.256C248.44 349.115 248.476 349.009 248.511 348.903Z" fill="#D8DFE8"/>
<path fill-rule="evenodd" clip-rule="evenodd" d="M205.255 395.593L152.386 372.989C152.245 372.565 152.245 372.142 152.245 371.718L205.113 394.321V394.321C205.113 394.745 205.113 395.169 205.255 395.593ZM207.092 403.786L207.516 405.057L154.648 382.454L154.224 381.183L207.092 403.786ZM211.333 415.371C211.192 415.159 211.086 414.911 210.98 414.664C210.874 414.417 210.768 414.17 210.626 413.958L157.758 391.354C157.899 391.566 158.005 391.814 158.111 392.061C158.217 392.308 158.323 392.555 158.464 392.767L211.333 415.371ZM164.543 402.938L217.553 425.542C218.118 426.107 218.542 426.672 218.967 427.378L165.957 404.775C165.682 404.318 165.348 403.919 165.032 403.542C164.859 403.337 164.692 403.138 164.543 402.938Z" fill="#2084A4"/>
<path fill-rule="evenodd" clip-rule="evenodd" d="M246.108 272.263V271.133L287.667 288.792C286.819 288.933 285.971 288.933 285.123 288.933H285.123L246.108 272.263ZM252.681 300.446C252.504 300.552 252.327 300.658 252.186 300.8L245.684 298.115V296.985L253.176 300.093C253.034 300.235 252.858 300.341 252.681 300.446ZM245.825 288.368V289.498L260.385 295.714C260.809 295.573 261.233 295.29 261.516 295.008L245.825 288.368ZM245.966 280.88V279.75L272.259 291.052C271.835 291.193 271.27 291.334 270.704 291.475L245.966 280.88Z" fill="#2395B9"/>
</svg>
