<svg width="116" height="36" viewBox="0 0 116 36" fill="none" xmlns="http://www.w3.org/2000/svg">
<path d="M22.5419 15.3711C22.8051 15.3711 22.9368 15.5059 22.9368 15.7756V16.9554C22.9368 17.225 22.8051 17.3599 22.5419 17.3599H14.2985C14.0352 17.3599 13.9036 17.225 13.9036 16.9554V15.7756C13.9036 15.5059 14.0352 15.3711 14.2985 15.3711H22.5419Z" fill="#1680A5"/>
<path d="M20.8635 13.3486H22.1634C22.3773 13.3486 22.476 13.2475 22.476 13.0284V4.70252C22.476 2.39353 20.6167 0.438477 18.4119 0.438477C18.4119 0.438477 18.4119 0.438477 18.3954 0.438477C16.3551 0.438477 14.6275 1.98904 14.3478 4.06207C14.3313 4.12949 14.3642 4.18005 14.3971 4.23061C14.43 4.28117 14.4958 4.31488 14.5617 4.31488L15.8286 4.44971C15.9931 4.46657 16.1577 4.34859 16.1906 4.1969C16.4703 3.1014 17.3424 2.37668 18.379 2.35982C18.9384 2.35982 19.4814 2.57893 19.8927 3.00027C20.3205 3.42162 20.5673 4.02836 20.5673 4.61825V6.00027H17.9018C16.7994 6.00027 15.7628 6.43848 15.0388 7.18005C14.3807 7.85421 14.0351 8.76432 14.0516 9.72499C14.0845 11.798 15.7134 13.3486 17.8031 13.3486C18.7574 13.3486 19.6788 13.0284 20.4357 12.4216L20.5673 12.3205V13.0284C20.5509 13.2475 20.6331 13.3486 20.8635 13.3486ZM20.5344 9.05084C20.5344 10.3486 19.2017 11.343 18.0005 11.4104C17.9347 11.4104 17.8689 11.4104 17.8195 11.4104C16.7336 11.4104 16.0096 10.8205 15.9273 9.82612C15.878 9.35421 16.0096 8.93286 16.3058 8.59578C16.7007 8.14072 17.3753 7.90477 18.1815 7.90477H20.5509V9.05084H20.5344Z" fill="#1680A5"/>
<path d="M91.2205 18.91H101.307C101.521 18.91 101.702 18.7246 101.702 18.5055V16.7695H91.2205V18.91Z" fill="#194561"/>
<path d="M99.9245 23.0224C99.7271 23.0056 99.5626 23.1404 99.5296 23.3426C99.398 24.0842 99.1347 24.7247 98.7399 25.2471C98.6905 25.3145 98.6411 25.3651 98.5918 25.4325C98.0159 26.0561 97.2919 26.3763 96.4199 26.3763C95.5478 26.3595 94.8238 26.0561 94.2479 25.4325C94.1986 25.382 94.1492 25.3145 94.0999 25.2471C93.5075 24.4887 93.2113 23.5112 93.2113 22.2808V13.8539C93.2113 12.6404 93.5075 11.646 94.0999 10.8876C94.1492 10.8202 94.1986 10.7696 94.2644 10.7022C94.8403 10.0786 95.5643 9.77522 96.4199 9.75836C97.2919 9.77522 97.9994 10.0786 98.5753 10.7022C98.6247 10.7696 98.6905 10.8202 98.7399 10.8876C99.3322 11.646 99.6284 12.6235 99.6284 13.8539V16.7696H101.718V13.6348C101.718 11.8482 101.224 10.3988 100.254 9.28645C99.7929 8.78083 99.2828 8.37634 98.6905 8.10668C98.6247 8.07297 98.5589 8.03926 98.4766 8.02241C98.4272 8.00555 98.3779 7.9887 98.3285 7.97184C98.312 7.97184 98.2956 7.95499 98.2791 7.95499C97.7197 7.75274 97.1274 7.63477 96.4857 7.63477C96.4692 7.63477 96.4363 7.63477 96.4199 7.63477C96.4034 7.63477 96.3705 7.63477 96.354 7.63477C95.7288 7.63477 95.1365 7.73589 94.5606 7.95499C94.5441 7.95499 94.5277 7.97184 94.5112 7.97184C94.4618 7.9887 94.4125 8.00555 94.3631 8.02241C94.2973 8.05611 94.2315 8.08982 94.1492 8.10668C93.5569 8.37634 93.0304 8.78083 92.5861 9.28645C91.6153 10.3988 91.1217 11.8482 91.1217 13.6348V22.4494C91.1217 24.0505 91.5166 25.382 92.2899 26.4269C92.3228 26.4775 92.3393 26.4943 92.3557 26.528C92.4216 26.6123 92.5038 26.7134 92.5861 26.7977C93.0962 27.3707 93.6885 27.7921 94.3796 28.0786C94.4125 28.0954 94.4618 28.1123 94.4948 28.1291C94.5277 28.146 94.5441 28.146 94.577 28.1629C95.1365 28.3651 95.7288 28.4662 96.354 28.4662C96.3705 28.4662 96.4034 28.4662 96.4199 28.4662C96.4363 28.4662 96.4692 28.4662 96.4857 28.4662C97.1109 28.4662 97.7033 28.3651 98.2627 28.1629C98.2956 28.146 98.3121 28.146 98.345 28.1291C98.3779 28.1123 98.4272 28.0954 98.4601 28.0786C99.1348 27.8089 99.7435 27.3707 100.254 26.7977C100.336 26.7134 100.402 26.6123 100.484 26.528C100.517 26.4943 100.533 26.4775 100.55 26.4269C101.142 25.6179 101.521 24.6572 101.652 23.5449C101.685 23.3258 101.521 23.1235 101.307 23.1235L99.9245 23.0224Z" fill="#194561"/>
<path d="M38.8641 26.9832C37.8275 26.0394 36.7909 24.708 36.7909 21.2698V3.20235C36.7909 2.93268 36.9225 2.79785 37.1858 2.79785H38.4856C38.7489 2.79785 38.8805 2.93268 38.8805 3.20235V26.9832H38.8641Z" fill="#194561"/>
<path d="M84.5566 27.6742V0.404494C84.5566 0.134831 84.6883 0 84.9515 0H86.2514C86.5147 0 86.6463 0.134831 86.6463 0.404494V27.6742C86.6463 27.9438 86.5147 28.0786 86.2514 28.0786H84.9515C84.6883 28.0618 84.5566 27.927 84.5566 27.6742Z" fill="#194561"/>
<path d="M46.6632 27.7421V8.3432C46.6632 8.07354 46.7948 7.93871 47.0581 7.93871H48.358C48.6212 7.93871 48.7528 8.07354 48.7528 8.3432V27.7589C48.7528 28.0286 48.6212 28.1634 48.358 28.1634H47.0581C46.7948 28.1466 46.6632 28.0117 46.6632 27.7421ZM46.6632 5.9668V3.37129C46.6632 3.10163 46.7948 2.9668 47.0581 2.9668H48.358C48.6212 2.9668 48.7528 3.10163 48.7528 3.37129V5.9668C48.7528 6.23646 48.6212 6.37129 48.358 6.37129H47.0581C46.7948 6.37129 46.6632 6.23646 46.6632 5.9668Z" fill="#194561"/>
<path d="M62.7386 22.3148C62.5412 22.3148 62.3767 22.4833 62.3602 22.6856C62.2944 23.7137 62.0147 24.5732 61.4882 25.2305C61.4388 25.2979 61.3894 25.3485 61.3401 25.4159C60.7642 26.0395 60.0402 26.3597 59.1682 26.3597C58.2961 26.3429 57.5721 26.0395 56.9962 25.4159C56.9469 25.3654 56.8975 25.2979 56.8482 25.2305C56.2558 24.4721 55.9596 23.4946 55.9596 22.2642V13.8541C55.9596 12.6406 56.2558 11.6463 56.8482 10.8878C56.8975 10.8204 56.9469 10.7698 57.0127 10.7024C57.5886 10.0788 58.3125 9.77547 59.1682 9.75861C60.0402 9.77547 60.7477 10.0788 61.3236 10.7024C61.373 10.7698 61.4388 10.8204 61.4882 10.8878C61.9653 11.5114 62.2615 12.2867 62.3438 13.2305C62.3602 13.4328 62.5247 13.5845 62.7222 13.5845H64.0714C64.2853 13.5845 64.4663 13.3991 64.4499 13.1631C64.3676 11.5788 63.8904 10.2811 62.9855 9.26985C62.5247 8.76423 62.0147 8.35974 61.4223 8.09007C61.3565 8.05637 61.2907 8.02266 61.2084 8.0058C61.1591 7.98895 61.1097 7.9721 61.0603 7.95524C61.0439 7.95524 61.0274 7.93839 61.011 7.93839C60.4516 7.73614 59.8592 7.61816 59.2175 7.61816C59.2011 7.61816 59.1681 7.61816 59.1517 7.61816C59.1352 7.61816 59.1023 7.61816 59.0859 7.61816C58.4606 7.61816 57.8683 7.71929 57.2924 7.93839C57.276 7.93839 56.9633 8.07322 56.8975 8.10693C56.3052 8.37659 55.7786 8.78108 55.3344 9.2867C54.3636 10.3991 53.87 11.8485 53.87 13.635V22.4496C53.87 24.0507 54.2649 25.3822 55.0382 26.4272C55.0711 26.4777 55.0876 26.4946 55.104 26.5283C55.1699 26.6125 55.2521 26.7137 55.3344 26.7979C55.8445 27.371 56.4368 27.7923 57.1279 28.0788C57.1608 28.0957 57.2101 28.1125 57.243 28.1294C57.276 28.1463 57.2924 28.1463 57.3253 28.1631C57.8847 28.3654 58.4771 28.4665 59.1023 28.4665C59.1188 28.4665 59.1517 28.4665 59.1682 28.4665C59.1846 28.4665 59.2175 28.4665 59.234 28.4665C59.8592 28.4665 60.4516 28.3654 61.011 28.1631C61.0439 28.1463 61.0603 28.1463 61.0933 28.1294C61.1262 28.1125 61.1755 28.0957 61.2084 28.0788C61.883 27.8092 62.4918 27.371 63.0019 26.7979C63.0842 26.7137 63.15 26.6125 63.2323 26.5283C63.2487 26.4946 63.2816 26.4609 63.2981 26.4272C64.0221 25.4496 64.4005 24.253 64.4663 22.7193C64.4828 22.5002 64.3018 22.3148 64.0879 22.3148H62.7386Z" fill="#194561"/>
<path d="M28.021 27.6916C28.021 27.9612 27.8894 28.0961 27.6261 28.0961H26.3263C26.063 28.0961 25.9314 27.9612 25.9314 27.6916V8.25899C25.9314 7.98932 26.063 7.85449 26.3263 7.85449H27.6261C27.8894 7.85449 28.021 7.98932 28.021 8.25899V27.6916Z" fill="#194561"/>
<path d="M28.0375 18.5058V13.9215C28.0375 12.708 28.3337 11.7136 28.926 10.9552C29.5183 10.1968 30.2752 9.826 31.2131 9.826C31.97 9.826 32.5129 9.89341 33.1546 10.1631C33.3521 10.2473 33.5824 10.1125 33.6154 9.91027L33.8622 8.7642C33.9115 8.5451 33.8128 8.326 33.6154 8.22487C32.9078 7.87094 32.1016 7.68555 31.1802 7.68555C30.3904 7.68555 29.6664 7.85409 28.9918 8.17431C28.3172 8.49454 27.7413 8.96645 27.2641 9.57319C27.2312 9.62375 27.1983 9.6406 27.149 9.6406C27.1161 9.6406 27.0996 14.1743 27.0996 18.5563C27.3629 18.5226 27.6755 18.5058 28.0375 18.5058Z" fill="#194561"/>
<path d="M38.8641 26.9832C37.8275 26.0394 36.7909 24.708 36.7909 21.2698V3.20235C36.7909 2.93268 36.9225 2.79785 37.1858 2.79785H38.4856C38.7489 2.79785 38.8805 2.93268 38.8805 3.20235V26.9832H38.8641Z" fill="#194561"/>
<path d="M38.8641 21.8263C38.8641 23.0398 39.1767 24.0342 39.769 24.7926C39.8184 24.86 39.8678 24.9106 39.9336 24.978C40.5095 25.6016 41.3651 25.905 42.2207 25.9218C42.3852 25.9218 42.5004 26.0566 42.5004 26.2083V27.7757C42.5004 27.9443 42.3688 28.0623 42.2207 28.0623C42.2042 28.0623 42.1713 28.0623 42.1549 28.0623C41.5296 28.0623 40.7892 27.9611 40.2298 27.742C40.2133 27.742 40.1968 27.7252 40.1804 27.7252C40.131 27.7083 40.0817 27.6915 40.0323 27.6746C39.9665 27.6409 39.9007 27.6072 39.8184 27.5903C39.2261 27.3207 38.6995 26.9162 38.2553 26.4106C37.2681 25.2982 36.7909 23.8488 36.7909 22.0623V20.0566L38.8641 21.8263Z" fill="#194561"/>
<path d="M37.6465 9.99469L37.2681 7.87109H42.1055C42.3688 7.87109 42.5004 8.00592 42.5004 8.27559V9.60705C42.5004 9.87671 42.3688 10.0115 42.1055 10.0115H37.6465V9.99469Z" fill="#194561"/>
<path d="M77.4649 8.69629C78.5015 9.64011 79.5381 10.9716 79.5381 14.4098V27.7075C79.5381 27.9772 79.4065 28.112 79.1432 28.112H77.8434C77.5801 28.112 77.4485 27.9772 77.4485 27.7075V8.69629H77.4649Z" fill="#194561"/>
<path d="M77.465 8.17403C77.465 7.90436 77.5966 7.76953 77.8599 7.76953H79.1597C79.423 7.76953 79.5546 7.90436 79.5546 8.17403V21.4718C79.5546 24.8931 78.518 26.2414 77.4814 27.1853V8.17403H77.465Z" fill="#194561"/>
<path d="M68.9583 8.17403C68.9583 7.90436 69.0899 7.76953 69.3531 7.76953H70.653C70.9163 7.76953 71.0479 7.90436 71.0479 8.17403V20.1572L68.9747 20.6459V8.17403H68.9583Z" fill="#194561"/>
<path d="M68.9583 20.6458V22.4491C68.9583 24.0503 69.3531 25.3817 70.1265 26.4267C70.1594 26.4772 70.1758 26.4941 70.1923 26.5278C70.2581 26.6121 70.3404 26.7132 70.4226 26.7974C70.9327 27.3705 71.5251 27.7918 72.2161 28.0784C72.249 28.0952 72.2984 28.1121 72.3313 28.1289C72.3642 28.1458 72.3807 28.1458 72.4136 28.1626C72.973 28.3649 73.5653 28.466 74.1906 28.466C74.207 28.466 74.24 28.466 74.2564 28.466C74.2729 28.466 74.3058 28.466 74.3222 28.466C74.9475 28.466 75.5398 28.3649 76.0992 28.1626C76.1322 28.1458 76.1486 28.1458 76.1815 28.1289C76.2144 28.1121 76.2638 28.0952 76.2967 28.0784C76.9713 27.8087 77.5801 27.3705 78.0902 26.7974C78.1724 26.7132 78.2383 26.6121 78.3205 26.5278C78.3534 26.5109 78.3699 26.5109 78.3863 26.5109C78.3863 26.5109 78.3863 26.4772 78.3863 26.4267C79.1597 25.3649 79.5546 24.0503 79.5546 22.4491L77.4649 21.4379V22.2637C77.4649 23.4772 77.1687 24.4716 76.5764 25.23C76.56 25.2469 76.5435 25.2637 76.527 25.2974C75.9347 25.9885 75.1778 26.3592 74.2564 26.3592C73.3021 26.3424 72.5287 25.9716 71.92 25.2132C71.8541 25.1289 71.7719 25.0278 71.7225 24.9267C71.2783 24.2188 71.0479 23.3255 71.0479 22.2637V19.1289L68.9583 20.6458Z" fill="#194561"/>
<path d="M2.07319 35.596C2.07319 35.8657 1.94156 36.0005 1.6783 36.0005H0.394894C0.131631 36.0005 0 35.8657 0 35.596V8.32637C0 8.05671 0.131631 7.92188 0.394894 7.92188H1.69475C1.95801 7.92188 2.08965 8.05671 2.08965 8.32637V35.596H2.07319Z" fill="#194561"/>
<path d="M5.29816 9.6912C7.09163 9.6912 8.55603 11.1912 8.55603 13.0283V23.0901C8.55603 24.9271 7.09163 26.4271 5.29816 26.4271C3.50468 26.4271 2.04028 24.9271 2.04028 23.0901V13.0451C2.04028 11.1912 3.50468 9.6912 5.29816 9.6912ZM5.29816 7.61816C2.36936 7.61816 0 10.0451 0 13.0451V23.0901C0 26.0901 2.36936 28.517 5.29816 28.517C8.22695 28.517 10.5963 26.0901 10.5963 23.0901V13.0451C10.5963 10.0451 8.22695 7.61816 5.29816 7.61816Z" fill="#194561"/>
<path d="M115.967 22.6516C115.852 21.219 115.325 20.2921 114.618 19.5673C113.614 18.5561 112.364 17.8988 111.08 17.2415C109.78 16.5842 108.398 15.4718 107.839 14.528C107.181 13.4325 107.428 11.8651 108.3 10.9044C108.349 10.837 108.398 10.7865 108.464 10.719C109.04 10.0954 109.764 9.79207 110.62 9.77522C111.492 9.79207 112.199 10.0954 112.775 10.719C112.824 10.7865 112.89 10.837 112.94 10.9044C113.4 11.4943 113.68 12.219 113.779 13.0954C113.812 13.3314 113.993 13.4999 114.223 13.4999H115.441C115.704 13.4999 115.918 13.2808 115.885 13.0112C115.786 11.5112 115.309 10.264 114.437 9.28645C113.976 8.78083 113.466 8.37634 112.874 8.10668C112.808 8.07297 112.742 8.03926 112.66 8.02241C112.611 8.00555 112.561 7.9887 112.512 7.97184C112.495 7.97184 112.479 7.95499 112.462 7.95499C111.903 7.75274 111.311 7.63477 110.669 7.63477C110.652 7.63477 110.62 7.63477 110.603 7.63477C110.587 7.63477 110.554 7.63477 110.537 7.63477C109.912 7.63477 109.32 7.73589 108.744 7.95499C108.727 7.95499 108.711 7.97184 108.694 7.97184C108.645 7.9887 108.596 8.00555 108.546 8.02241C108.481 8.05611 108.415 8.08982 108.332 8.10668C107.74 8.37634 107.214 8.76398 106.769 9.28645C105.634 10.6011 105.387 11.8988 105.42 13.2471C105.437 14.5617 106.045 15.8426 106.769 16.5505C107.773 17.5617 109.254 18.4887 110.504 19.146C111.722 19.7865 113.055 20.6291 113.548 21.573C113.795 22.0786 113.96 22.7696 113.861 23.4775C113.762 24.1348 113.466 24.7078 113.088 25.1966C113.038 25.264 112.989 25.3145 112.923 25.382C112.347 26.0056 111.623 26.3089 110.768 26.3258C109.896 26.3089 109.188 26.0056 108.612 25.382C108.563 25.3145 108.497 25.264 108.448 25.1966C107.987 24.6067 107.707 23.882 107.609 23.0056C107.576 22.7696 107.395 22.6011 107.164 22.6011H105.947C105.683 22.6011 105.47 22.8202 105.502 23.0898C105.601 24.5898 106.078 25.837 106.95 26.8145C107.411 27.3202 107.921 27.7247 108.513 27.9943C108.579 28.028 108.645 28.0617 108.727 28.0786C108.777 28.0954 108.826 28.1123 108.875 28.1291C108.892 28.1291 108.908 28.146 108.925 28.146C109.484 28.3482 110.077 28.4662 110.718 28.4662C110.735 28.4662 110.768 28.4662 110.784 28.4662C110.801 28.4662 110.833 28.4662 110.85 28.4662C111.475 28.4662 112.068 28.3651 112.643 28.146C112.66 28.146 112.676 28.1291 112.693 28.1291C112.742 28.1123 112.792 28.0954 112.841 28.0786C112.907 28.0449 112.972 28.0112 113.055 27.9943C113.647 27.7247 114.174 27.3202 114.618 26.8145C115.128 26.2247 115.605 25.4494 115.803 24.6572C115.984 23.8988 116.033 23.5449 115.967 22.6516Z" fill="#194561"/>
</svg>
