<svg width="216" height="178" viewBox="0 0 216 178" fill="none" xmlns="http://www.w3.org/2000/svg">
<path fill-rule="evenodd" clip-rule="evenodd" d="M215.008 0.668453L214.977 10.6299L208.977 10.6112L208.99 6.66845L205.405 6.66845L205.405 0.66845L215.008 0.668453ZM192.218 6.66845L179.03 6.66844L179.03 0.668443L192.218 0.668447L192.218 6.66845ZM165.843 6.66844L152.655 6.66844L152.655 0.668436L165.843 0.66844L165.843 6.66844ZM139.468 6.66843L126.281 6.66843L126.281 0.668429L139.468 0.668433L139.468 6.66843ZM113.093 6.66843L99.9057 6.66842L99.9057 0.668422L113.093 0.668426L113.093 6.66843ZM86.7182 6.66842L73.5308 6.66841L73.5308 0.668415L86.7182 0.668419L86.7182 6.66842ZM60.3434 6.66841L47.1559 6.66841L47.1559 0.668408L60.3434 0.668412L60.3434 6.66841ZM33.9685 6.6684L20.781 6.6684L20.781 0.668401L33.9685 0.668405L33.9685 6.6684ZM7.59359 6.6684L0.999864 6.6684L0.999865 0.668396L7.59359 0.668397L7.59359 6.6684ZM208.891 38.4195L208.934 24.5153L214.934 24.534L214.891 38.4382L208.891 38.4195ZM208.804 66.2278L208.847 52.3236L214.847 52.3423L214.804 66.2465L208.804 66.2278ZM208.718 94.0361L208.761 80.1319L214.761 80.1506L214.718 94.0548L208.718 94.0361ZM208.631 121.844L208.674 107.94L214.674 107.959L214.631 121.863L208.631 121.844ZM208.544 149.653L208.588 135.749L214.588 135.767L214.544 149.671L208.544 149.653ZM208.458 177.461L208.501 163.557L214.501 163.576L214.458 177.48L208.458 177.461Z" fill="#F3F7F9"/>
</svg>
