<svg width="106" height="50" viewBox="0 0 106 50" fill="none" xmlns="http://www.w3.org/2000/svg">
<g style="mix-blend-mode:multiply">
<path d="M2.61144 1.43199C2.61144 2.14798 2.01789 2.74465 1.30568 2.74465C0.593476 2.74465 0 2.14798 0 1.43199C0 0.716005 0.593476 0.119339 1.30568 0.119339C2.01789 0.119339 2.61144 0.716005 2.61144 1.43199ZM10.6831 0.119339C9.97089 0.119339 9.37741 0.716005 9.37741 1.43199C9.37741 2.14798 9.97089 2.74465 10.6831 2.74465C11.3953 2.74465 11.9888 2.14798 11.9888 1.43199C11.9888 0.716005 11.3953 0.119339 10.6831 0.119339ZM20.1792 0.119339C19.467 0.119339 18.8735 0.716005 18.8735 1.43199C18.8735 2.14798 19.467 2.74465 20.1792 2.74465C20.8914 2.74465 21.4849 2.14798 21.4849 1.43199C21.3662 0.716005 20.7727 0.119339 20.1792 0.119339ZM29.5566 0.119339C28.8444 0.119339 28.2508 0.716005 28.2508 1.43199C28.2508 2.14798 28.8444 2.74465 29.5566 2.74465C30.2688 2.74465 30.8623 2.14798 30.8623 1.43199C30.7436 0.716005 30.2688 0.119339 29.5566 0.119339ZM38.9339 0.119339C38.2217 0.119339 37.6282 0.716005 37.6282 1.43199C37.6282 2.14798 38.2217 2.74465 38.9339 2.74465C39.6461 2.74465 40.2397 2.14798 40.2397 1.43199C40.2397 0.716005 39.6461 0.119339 38.9339 0.119339ZM48.3113 0.119339C47.5991 0.119339 47.0056 0.716005 47.0056 1.43199C47.0056 2.14798 47.5991 2.74465 48.3113 2.74465C49.0235 2.74465 49.617 2.14798 49.617 1.43199C49.617 0.716005 49.0235 0.119339 48.3113 0.119339ZM57.6887 0.119339C56.9765 0.119339 56.383 0.716005 56.383 1.43199C56.383 2.14798 56.9765 2.74465 57.6887 2.74465C58.4009 2.74465 58.9944 2.14798 58.9944 1.43199C58.9944 0.716005 58.4009 0.119339 57.6887 0.119339ZM67.0661 0.119339C66.3539 0.119339 65.7604 0.716005 65.7604 1.43199C65.7604 2.14798 66.3539 2.74465 67.0661 2.74465C67.7783 2.74465 68.3718 2.14798 68.3718 1.43199C68.3718 0.716005 67.7783 0.119339 67.0661 0.119339ZM76.5622 0.119339C75.85 0.119339 75.2565 0.716005 75.2565 1.43199C75.2565 2.14798 75.85 2.74465 76.5622 2.74465C77.2744 2.74465 77.8678 2.14798 77.8678 1.43199C77.7491 0.716005 77.1557 0.119339 76.5622 0.119339ZM85.9396 0.119339C85.2274 0.119339 84.6338 0.716005 84.6338 1.43199C84.6338 2.14798 85.2274 2.74465 85.9396 2.74465C86.6518 2.74465 87.2453 2.14798 87.2453 1.43199C87.1266 0.716005 86.6518 0.119339 85.9396 0.119339ZM95.3169 0.119339C94.6047 0.119339 94.0112 0.716005 94.0112 1.43199C94.0112 2.14798 94.6047 2.74465 95.3169 2.74465C96.0291 2.74465 96.6227 2.14798 96.6227 1.43199C96.6227 0.716005 96.0291 0.119339 95.3169 0.119339ZM104.694 2.62531C105.407 2.62531 106 2.02865 106 1.31266C106 0.596666 105.407 0 104.694 0C103.982 0 103.389 0.596666 103.389 1.31266C103.389 2.14798 103.982 2.62531 104.694 2.62531ZM1.30568 9.54653C0.593476 9.54653 0 10.1432 0 10.8592C0 11.5752 0.593476 12.1718 1.30568 12.1718C2.01789 12.1718 2.61144 11.5752 2.61144 10.8592C2.61144 10.1432 2.01789 9.54653 1.30568 9.54653ZM10.6831 9.54653C9.97089 9.54653 9.37741 10.1432 9.37741 10.8592C9.37741 11.5752 9.97089 12.1718 10.6831 12.1718C11.3953 12.1718 11.9888 11.5752 11.9888 10.8592C11.9888 10.1432 11.3953 9.54653 10.6831 9.54653ZM20.1792 9.54653C19.467 9.54653 18.8735 10.1432 18.8735 10.8592C18.8735 11.5752 19.467 12.1718 20.1792 12.1718C20.8914 12.1718 21.4849 11.5752 21.4849 10.8592C21.3662 10.1432 20.7727 9.54653 20.1792 9.54653ZM29.5566 9.54653C28.8444 9.54653 28.2508 10.1432 28.2508 10.8592C28.2508 11.5752 28.8444 12.1718 29.5566 12.1718C30.2688 12.1718 30.8623 11.5752 30.8623 10.8592C30.7436 10.1432 30.2688 9.54653 29.5566 9.54653ZM38.9339 9.54653C38.2217 9.54653 37.6282 10.1432 37.6282 10.8592C37.6282 11.5752 38.2217 12.1718 38.9339 12.1718C39.6461 12.1718 40.2397 11.5752 40.2397 10.8592C40.2397 10.1432 39.6461 9.54653 38.9339 9.54653ZM48.3113 9.54653C47.5991 9.54653 47.0056 10.1432 47.0056 10.8592C47.0056 11.5752 47.5991 12.1718 48.3113 12.1718C49.0235 12.1718 49.617 11.5752 49.617 10.8592C49.617 10.1432 49.0235 9.54653 48.3113 9.54653ZM57.6887 9.54653C56.9765 9.54653 56.383 10.1432 56.383 10.8592C56.383 11.5752 56.9765 12.1718 57.6887 12.1718C58.4009 12.1718 58.9944 11.5752 58.9944 10.8592C58.9944 10.1432 58.4009 9.54653 57.6887 9.54653ZM67.0661 9.54653C66.3539 9.54653 65.7604 10.1432 65.7604 10.8592C65.7604 11.5752 66.3539 12.1718 67.0661 12.1718C67.7783 12.1718 68.3718 11.5752 68.3718 10.8592C68.3718 10.1432 67.7783 9.54653 67.0661 9.54653ZM76.5622 9.54653C75.85 9.54653 75.2565 10.1432 75.2565 10.8592C75.2565 11.5752 75.85 12.1718 76.5622 12.1718C77.2744 12.1718 77.8678 11.5752 77.8678 10.8592C77.7491 10.1432 77.1557 9.54653 76.5622 9.54653ZM85.9396 9.54653C85.2274 9.54653 84.6338 10.1432 84.6338 10.8592C84.6338 11.5752 85.2274 12.1718 85.9396 12.1718C86.6518 12.1718 87.2453 11.5752 87.2453 10.8592C87.1266 10.1432 86.6518 9.54653 85.9396 9.54653ZM95.3169 9.54653C94.6047 9.54653 94.0112 10.1432 94.0112 10.8592C94.0112 11.5752 94.6047 12.1718 95.3169 12.1718C96.0291 12.1718 96.6227 11.5752 96.6227 10.8592C96.6227 10.1432 96.0291 9.54653 95.3169 9.54653ZM104.694 9.54653C103.982 9.54653 103.389 10.1432 103.389 10.8592C103.389 11.5752 103.982 12.1718 104.694 12.1718C105.407 12.1718 106 11.5752 106 10.8592C106 10.1432 105.407 9.54653 104.694 9.54653ZM1.30568 19.0931C0.593476 19.0931 0 19.6897 0 20.4057C0 21.1217 0.593476 21.7184 1.30568 21.7184C2.01789 21.7184 2.61144 21.1217 2.61144 20.4057C2.61144 19.5704 2.01789 19.0931 1.30568 19.0931ZM10.6831 19.0931C9.97089 19.0931 9.37741 19.6897 9.37741 20.4057C9.37741 21.1217 9.97089 21.7184 10.6831 21.7184C11.3953 21.7184 11.9888 21.1217 11.9888 20.4057C11.9888 19.5704 11.3953 19.0931 10.6831 19.0931ZM20.1792 19.0931C19.467 19.0931 18.8735 19.6897 18.8735 20.4057C18.8735 21.1217 19.467 21.7184 20.1792 21.7184C20.8914 21.7184 21.4849 21.1217 21.4849 20.4057C21.3662 19.5704 20.7727 19.0931 20.1792 19.0931ZM29.5566 19.0931C28.8444 19.0931 28.2508 19.6897 28.2508 20.4057C28.2508 21.1217 28.8444 21.7184 29.5566 21.7184C30.2688 21.7184 30.8623 21.1217 30.8623 20.4057C30.7436 19.5704 30.2688 19.0931 29.5566 19.0931ZM38.9339 19.0931C38.2217 19.0931 37.6282 19.6897 37.6282 20.4057C37.6282 21.1217 38.2217 21.7184 38.9339 21.7184C39.6461 21.7184 40.2397 21.1217 40.2397 20.4057C40.2397 19.5704 39.6461 19.0931 38.9339 19.0931ZM48.3113 19.0931C47.5991 19.0931 47.0056 19.6897 47.0056 20.4057C47.0056 21.1217 47.5991 21.7184 48.3113 21.7184C49.0235 21.7184 49.617 21.1217 49.617 20.4057C49.617 19.5704 49.0235 19.0931 48.3113 19.0931ZM57.6887 19.0931C56.9765 19.0931 56.383 19.6897 56.383 20.4057C56.383 21.1217 56.9765 21.7184 57.6887 21.7184C58.4009 21.7184 58.9944 21.1217 58.9944 20.4057C58.9944 19.5704 58.4009 19.0931 57.6887 19.0931ZM67.0661 19.0931C66.3539 19.0931 65.7604 19.6897 65.7604 20.4057C65.7604 21.1217 66.3539 21.7184 67.0661 21.7184C67.7783 21.7184 68.3718 21.1217 68.3718 20.4057C68.3718 19.5704 67.7783 19.0931 67.0661 19.0931ZM76.5622 19.0931C75.85 19.0931 75.2565 19.6897 75.2565 20.4057C75.2565 21.1217 75.85 21.7184 76.5622 21.7184C77.2744 21.7184 77.8678 21.1217 77.8678 20.4057C77.7491 19.5704 77.1557 19.0931 76.5622 19.0931ZM85.9396 19.0931C85.2274 19.0931 84.6338 19.6897 84.6338 20.4057C84.6338 21.1217 85.2274 21.7184 85.9396 21.7184C86.6518 21.7184 87.2453 21.1217 87.2453 20.4057C87.1266 19.5704 86.6518 19.0931 85.9396 19.0931ZM95.3169 19.0931C94.6047 19.0931 94.0112 19.6897 94.0112 20.4057C94.0112 21.1217 94.6047 21.7184 95.3169 21.7184C96.0291 21.7184 96.6227 21.1217 96.6227 20.4057C96.6227 19.5704 96.0291 19.0931 95.3169 19.0931ZM104.694 19.0931C103.982 19.0931 103.389 19.6897 103.389 20.4057C103.389 21.1217 103.982 21.7184 104.694 21.7184C105.407 21.7184 106 21.1217 106 20.4057C106 19.5704 105.407 19.0931 104.694 19.0931ZM1.30568 28.5203C0.593476 28.5203 0 29.1169 0 29.8329C0 30.5489 0.593476 31.1456 1.30568 31.1456C2.01789 31.1456 2.61144 30.5489 2.61144 29.8329C2.61144 29.1169 2.01789 28.5203 1.30568 28.5203ZM10.6831 28.5203C9.97089 28.5203 9.37741 29.1169 9.37741 29.8329C9.37741 30.5489 9.97089 31.1456 10.6831 31.1456C11.3953 31.1456 11.9888 30.5489 11.9888 29.8329C11.9888 29.1169 11.3953 28.5203 10.6831 28.5203ZM20.1792 28.5203C19.467 28.5203 18.8735 29.1169 18.8735 29.8329C18.8735 30.5489 19.467 31.1456 20.1792 31.1456C20.8914 31.1456 21.4849 30.5489 21.4849 29.8329C21.3662 29.1169 20.7727 28.5203 20.1792 28.5203ZM29.5566 28.5203C28.8444 28.5203 28.2508 29.1169 28.2508 29.8329C28.2508 30.5489 28.8444 31.1456 29.5566 31.1456C30.2688 31.1456 30.8623 30.5489 30.8623 29.8329C30.7436 29.1169 30.2688 28.5203 29.5566 28.5203ZM38.9339 28.5203C38.2217 28.5203 37.6282 29.1169 37.6282 29.8329C37.6282 30.5489 38.2217 31.1456 38.9339 31.1456C39.6461 31.1456 40.2397 30.5489 40.2397 29.8329C40.2397 29.1169 39.6461 28.5203 38.9339 28.5203ZM48.3113 28.5203C47.5991 28.5203 47.0056 29.1169 47.0056 29.8329C47.0056 30.5489 47.5991 31.1456 48.3113 31.1456C49.0235 31.1456 49.617 30.5489 49.617 29.8329C49.617 29.1169 49.0235 28.5203 48.3113 28.5203ZM57.6887 28.5203C56.9765 28.5203 56.383 29.1169 56.383 29.8329C56.383 30.5489 56.9765 31.1456 57.6887 31.1456C58.4009 31.1456 58.9944 30.5489 58.9944 29.8329C58.9944 29.1169 58.4009 28.5203 57.6887 28.5203ZM67.0661 28.5203C66.3539 28.5203 65.7604 29.1169 65.7604 29.8329C65.7604 30.5489 66.3539 31.1456 67.0661 31.1456C67.7783 31.1456 68.3718 30.5489 68.3718 29.8329C68.3718 29.1169 67.7783 28.5203 67.0661 28.5203ZM76.5622 28.5203C75.85 28.5203 75.2565 29.1169 75.2565 29.8329C75.2565 30.5489 75.85 31.1456 76.5622 31.1456C77.2744 31.1456 77.8678 30.5489 77.8678 29.8329C77.7491 29.1169 77.1557 28.5203 76.5622 28.5203ZM85.9396 28.5203C85.2274 28.5203 84.6338 29.1169 84.6338 29.8329C84.6338 30.5489 85.2274 31.1456 85.9396 31.1456C86.6518 31.1456 87.2453 30.5489 87.2453 29.8329C87.1266 29.1169 86.6518 28.5203 85.9396 28.5203ZM95.3169 28.5203C94.6047 28.5203 94.0112 29.1169 94.0112 29.8329C94.0112 30.5489 94.6047 31.1456 95.3169 31.1456C96.0291 31.1456 96.6227 30.5489 96.6227 29.8329C96.6227 29.1169 96.0291 28.5203 95.3169 28.5203ZM104.694 28.5203C103.982 28.5203 103.389 29.1169 103.389 29.8329C103.389 30.5489 103.982 31.1456 104.694 31.1456C105.407 31.1456 106 30.5489 106 29.8329C106 29.1169 105.407 28.5203 104.694 28.5203ZM1.30568 37.9475C0.593476 37.9475 0 38.5442 0 39.2601C0 39.9761 0.593476 40.5728 1.30568 40.5728C2.01789 40.5728 2.61144 39.9761 2.61144 39.2601C2.61144 38.5442 2.01789 37.9475 1.30568 37.9475ZM10.6831 37.9475C9.97089 37.9475 9.37741 38.5442 9.37741 39.2601C9.37741 39.9761 9.97089 40.5728 10.6831 40.5728C11.3953 40.5728 11.9888 39.9761 11.9888 39.2601C11.9888 38.5442 11.3953 37.9475 10.6831 37.9475ZM20.1792 37.9475C19.467 37.9475 18.8735 38.5442 18.8735 39.2601C18.8735 39.9761 19.467 40.5728 20.1792 40.5728C20.8914 40.5728 21.4849 39.9761 21.4849 39.2601C21.3662 38.5442 20.7727 37.9475 20.1792 37.9475ZM29.5566 37.9475C28.8444 37.9475 28.2508 38.5442 28.2508 39.2601C28.2508 39.9761 28.8444 40.5728 29.5566 40.5728C30.2688 40.5728 30.8623 39.9761 30.8623 39.2601C30.7436 38.5442 30.2688 37.9475 29.5566 37.9475ZM38.9339 37.9475C38.2217 37.9475 37.6282 38.5442 37.6282 39.2601C37.6282 39.9761 38.2217 40.5728 38.9339 40.5728C39.6461 40.5728 40.2397 39.9761 40.2397 39.2601C40.2397 38.5442 39.6461 37.9475 38.9339 37.9475ZM48.3113 37.9475C47.5991 37.9475 47.0056 38.5442 47.0056 39.2601C47.0056 39.9761 47.5991 40.5728 48.3113 40.5728C49.0235 40.5728 49.617 39.9761 49.617 39.2601C49.617 38.5442 49.0235 37.9475 48.3113 37.9475ZM57.6887 37.9475C56.9765 37.9475 56.383 38.5442 56.383 39.2601C56.383 39.9761 56.9765 40.5728 57.6887 40.5728C58.4009 40.5728 58.9944 39.9761 58.9944 39.2601C58.9944 38.5442 58.4009 37.9475 57.6887 37.9475ZM67.0661 37.9475C66.3539 37.9475 65.7604 38.5442 65.7604 39.2601C65.7604 39.9761 66.3539 40.5728 67.0661 40.5728C67.7783 40.5728 68.3718 39.9761 68.3718 39.2601C68.3718 38.5442 67.7783 37.9475 67.0661 37.9475ZM76.5622 37.9475C75.85 37.9475 75.2565 38.5442 75.2565 39.2601C75.2565 39.9761 75.85 40.5728 76.5622 40.5728C77.2744 40.5728 77.8678 39.9761 77.8678 39.2601C77.7491 38.5442 77.1557 37.9475 76.5622 37.9475ZM85.9396 37.9475C85.2274 37.9475 84.6338 38.5442 84.6338 39.2601C84.6338 39.9761 85.2274 40.5728 85.9396 40.5728C86.6518 40.5728 87.2453 39.9761 87.2453 39.2601C87.1266 38.5442 86.6518 37.9475 85.9396 37.9475ZM95.3169 37.9475C94.6047 37.9475 94.0112 38.5442 94.0112 39.2601C94.0112 39.9761 94.6047 40.5728 95.3169 40.5728C96.0291 40.5728 96.6227 39.9761 96.6227 39.2601C96.6227 38.5442 96.0291 37.9475 95.3169 37.9475ZM104.694 37.9475C103.982 37.9475 103.389 38.5442 103.389 39.2601C103.389 39.9761 103.982 40.5728 104.694 40.5728C105.407 40.5728 106 39.9761 106 39.2601C106 38.5442 105.407 37.9475 104.694 37.9475ZM1.30568 47.3747C0.593476 47.3747 0 47.9714 0 48.6873C0 49.4033 0.593476 50 1.30568 50C2.01789 50 2.61144 49.4033 2.61144 48.6873C2.61144 47.9714 2.01789 47.3747 1.30568 47.3747ZM10.6831 47.3747C9.97089 47.3747 9.37741 47.9714 9.37741 48.6873C9.37741 49.4033 9.97089 50 10.6831 50C11.3953 50 11.9888 49.4033 11.9888 48.6873C11.9888 47.9714 11.3953 47.3747 10.6831 47.3747ZM20.1792 47.3747C19.467 47.3747 18.8735 47.9714 18.8735 48.6873C18.8735 49.4033 19.467 50 20.1792 50C20.8914 50 21.4849 49.4033 21.4849 48.6873C21.3662 47.9714 20.7727 47.3747 20.1792 47.3747ZM29.5566 47.3747C28.8444 47.3747 28.2508 47.9714 28.2508 48.6873C28.2508 49.4033 28.8444 50 29.5566 50C30.2688 50 30.8623 49.4033 30.8623 48.6873C30.7436 47.9714 30.2688 47.3747 29.5566 47.3747ZM38.9339 47.3747C38.2217 47.3747 37.6282 47.9714 37.6282 48.6873C37.6282 49.4033 38.2217 50 38.9339 50C39.6461 50 40.2397 49.4033 40.2397 48.6873C40.2397 47.9714 39.6461 47.3747 38.9339 47.3747ZM48.3113 47.3747C47.5991 47.3747 47.0056 47.9714 47.0056 48.6873C47.0056 49.4033 47.5991 50 48.3113 50C49.0235 50 49.617 49.4033 49.617 48.6873C49.617 47.9714 49.0235 47.3747 48.3113 47.3747ZM57.6887 47.3747C56.9765 47.3747 56.383 47.9714 56.383 48.6873C56.383 49.4033 56.9765 50 57.6887 50C58.4009 50 58.9944 49.4033 58.9944 48.6873C58.9944 47.9714 58.4009 47.3747 57.6887 47.3747ZM67.0661 47.3747C66.3539 47.3747 65.7604 47.9714 65.7604 48.6873C65.7604 49.4033 66.3539 50 67.0661 50C67.7783 50 68.3718 49.4033 68.3718 48.6873C68.3718 47.9714 67.7783 47.3747 67.0661 47.3747ZM76.5622 47.3747C75.85 47.3747 75.2565 47.9714 75.2565 48.6873C75.2565 49.4033 75.85 50 76.5622 50C77.2744 50 77.8678 49.4033 77.8678 48.6873C77.7491 47.9714 77.1557 47.3747 76.5622 47.3747ZM85.9396 47.3747C85.2274 47.3747 84.6338 47.9714 84.6338 48.6873C84.6338 49.4033 85.2274 50 85.9396 50C86.6518 50 87.2453 49.4033 87.2453 48.6873C87.1266 47.9714 86.6518 47.3747 85.9396 47.3747ZM95.3169 47.3747C94.6047 47.3747 94.0112 47.9714 94.0112 48.6873C94.0112 49.4033 94.6047 50 95.3169 50C96.0291 50 96.6227 49.4033 96.6227 48.6873C96.6227 47.9714 96.0291 47.3747 95.3169 47.3747ZM104.694 47.3747C103.982 47.3747 103.389 47.9714 103.389 48.6873C103.389 49.4033 103.982 50 104.694 50C105.407 50 106 49.4033 106 48.6873C106 47.9714 105.407 47.3747 104.694 47.3747Z" fill="#F0B398"/>
</g>
</svg>
