<?xml version="1.0" encoding="utf-8"?>
<!-- Generator: Adobe Illustrator 24.1.0, SVG Export Plug-In . SVG Version: 6.00 Build 0)  -->
<svg version="1.1" id="Calque_1" xmlns="http://www.w3.org/2000/svg" xmlns:xlink="http://www.w3.org/1999/xlink" x="0px" y="0px"
	 viewBox="0 0 28.1 28.5" style="enable-background:new 0 0 28.1 28.5;" xml:space="preserve">
<path d="M6.2,4C0,7.9-1.9,16.1,2.1,22.3s12.1,8,18.3,4.1c3-1.9,5-4.9,5.8-8.1l-13-3.1L6.2,4z M22,6.9c1.5-1,2.7-1.7,2.7-1.7
	c-4-5.1-11.1-6.6-16.9-3.6c0,0,6.5,10.2,6.5,10.2S18.9,8.8,22,6.9z M26.5,6.6c1.5,2.9,1.9,6.1,1.2,9.1L16,13.3L26.5,6.6z"/>
</svg>
