<svg width="38" height="31" viewBox="0 0 38 31" fill="none" xmlns="http://www.w3.org/2000/svg">
<path d="M30.8151 7.72977V1.04317C30.8151 0.467284 30.3506 0 29.7781 0H1.03694C0.464497 0 0 0.467284 0 1.04317V25.2986C0 28.4474 2.53735 31 5.66738 31H32.3326C35.4627 31 38 28.4474 38 25.2986V9.8161C38 9.24022 37.5355 8.77293 36.9631 8.77293H31.852C31.2796 8.77293 30.8151 8.30565 30.8151 7.72977ZM2.07596 25.2986V3.13159C2.07596 2.5557 2.54046 2.08842 3.11291 2.08842H27.7022C28.2746 2.08842 28.7391 2.5557 28.7391 3.13159V8.77241V25.7137V26.3418C28.7391 27.2915 29.024 28.1744 29.5109 28.9116H5.66738C3.6838 28.9116 2.07596 27.2941 2.07596 25.2986ZM5.54698 5.82565H25.2686V10.7522H5.54698V5.82565ZM10.7042 16.5445H5.54646V14.4561H10.7042V16.5445ZM13.6884 14.4561H25.2681V16.5445H13.6884V14.4561ZM5.54698 18.8423H25.2686V20.9307H5.54698V18.8423ZM5.54698 23.229H25.2686V25.3174H5.54698V23.229Z" fill="#1680A5"/>
</svg>
