<svg width="72" height="110" viewBox="0 0 72 110" fill="none" xmlns="http://www.w3.org/2000/svg">
<path d="M70.7604 45.8804C71.5868 45.8804 72 46.2936 72 47.12V50.7355C72 51.5619 71.5868 51.9751 70.7604 51.9751H44.8838C44.0574 51.9751 43.6442 51.5619 43.6442 50.7355V47.12C43.6442 46.2936 44.0574 45.8804 44.8838 45.8804H70.7604Z" fill="#1680A5"/>
<path d="M65.4921 39.6307H69.5724C70.2439 39.6307 70.5538 39.3208 70.5538 38.6494V13.1343C70.5538 6.05829 64.7173 0.0668945 57.7962 0.0668945C57.7962 0.0668945 57.7962 0.0668945 57.7446 0.0668945C51.34 0.0668945 45.8651 4.81869 45.0387 11.1716C44.987 11.3782 45.0903 11.5332 45.1936 11.6881C45.2969 11.8431 45.5035 11.9464 45.7101 11.9464L49.6872 12.3596C50.2037 12.4112 50.7202 12.0497 50.8235 11.5848C51.7015 8.22758 54.439 6.00664 57.6929 5.95499C59.449 5.95499 61.1535 6.62644 62.4447 7.91768C63.7876 9.20893 64.5624 11.0683 64.5624 12.8761V17.1114H56.1951C52.7345 17.1114 49.4806 18.4543 47.208 20.7269C45.142 22.7929 44.0574 25.582 44.109 28.526C44.2123 34.8789 49.3256 39.6307 55.8852 39.6307C58.8809 39.6307 61.7733 38.6494 64.1492 36.79L64.5624 36.4801V38.6494C64.5107 39.3725 64.769 39.6307 65.4921 39.6307ZM64.4591 26.5117C64.4591 30.4887 60.2754 33.536 56.505 33.7426C56.2984 33.7426 56.0918 33.7426 55.9368 33.7426C52.5279 33.7426 50.2553 31.9349 49.9971 28.8876C49.8421 27.4414 50.2553 26.1501 51.185 25.1171C52.4246 23.7226 54.5423 22.9995 57.0731 22.9995H64.5107V26.5117H64.4591Z" fill="#1680A5"/>
<path d="M6.50789 107.86C6.50789 108.686 6.09469 109.099 5.26829 109.099H1.2396C0.413199 109.099 0 108.686 0 107.86V24.2901C0 23.4637 0.413199 23.0505 1.2396 23.0505H5.31994C6.14634 23.0505 6.55954 23.4637 6.55954 24.2901V107.86H6.50789Z" fill="#194561"/>
<path d="M16.6313 28.4743C22.2611 28.4743 26.858 33.0711 26.858 38.701V69.4843C26.858 75.1142 22.2611 79.711 16.6313 79.711C11.0014 79.711 6.40459 75.1142 6.40459 69.4843V38.7526C6.40459 33.0711 11.0014 28.4743 16.6313 28.4743ZM16.6313 22.1213C7.43759 22.1213 0 29.5589 0 38.7526V69.536C0 78.7297 7.43759 86.1673 16.6313 86.1673C25.825 86.1673 33.2626 78.7297 33.2626 69.536V38.7526C33.2626 29.5589 25.825 22.1213 16.6313 22.1213Z" fill="#194561"/>
</svg>
