<?xml version="1.0" encoding="utf-8"?>
<!-- Generator: Adobe Illustrator 24.1.0, SVG Export Plug-In . SVG Version: 6.00 Build 0)  -->
<svg version="1.1" id="Calque_1" xmlns="http://www.w3.org/2000/svg" xmlns:xlink="http://www.w3.org/1999/xlink" x="0px" y="0px"
	 viewBox="0 0 31 27" style="enable-background:new 0 0 31 27;" xml:space="preserve">
<path d="M19.4,4.3C19.4,2,21.5,0,23.9,0s4.5,2,4.5,4.3c0,2.3-2.1,4.3-4.5,4.3S19.4,6.6,19.4,4.3z M25.9,11H22
	c-2.8,0-5.2,2.2-5.2,4.9v11H31V16C31,13.3,28.7,11,25.9,11z M9,14.7H5.2c-2.8,0-5.2,2.2-5.2,4.9V27h14.2v-7.4
	C14.2,16.9,11.9,14.7,9,14.7z M7.1,12.3c2.5,0,4.5-2,4.5-4.3c0-2.3-2.1-4.3-4.5-4.3S2.6,5.7,2.6,8C2.6,10.4,4.7,12.3,7.1,12.3z"/>
</svg>
